<svg width="15" height="14" viewBox="0 0 15 14" fill="none" xmlns="http://www.w3.org/2000/svg">
<g id="Calling">
<g id="Group 3">
<mask id="mask0_11033_18603" style="mask-type:luminance" maskUnits="userSpaceOnUse" x="8" y="0" width="7" height="7">
<path id="Clip 2" fill-rule="evenodd" clip-rule="evenodd" d="M8.56934 0.333984H14.262V6.02253H8.56934V0.333984Z" fill="white"/>
</mask>
<g mask="url(#mask0_11033_18603)">
<path id="Fill 1" fill-rule="evenodd" clip-rule="evenodd" d="M13.7618 6.02253C13.5105 6.02253 13.2945 5.83386 13.2658 5.57853C13.0131 3.32786 11.2651 1.58119 9.0138 1.33119C8.7398 1.30053 8.5418 1.05386 8.57247 0.779193C8.60247 0.505193 8.84713 0.303193 9.12447 0.33786C11.8431 0.63986 13.9545 2.74853 14.2591 5.46653C14.2898 5.74119 14.0925 5.98853 13.8185 6.01919C13.7998 6.02119 13.7805 6.02253 13.7618 6.02253Z" fill="white"/>
</g>
</g>
<path id="Fill 4" fill-rule="evenodd" clip-rule="evenodd" d="M11.4015 6.02927C11.1668 6.02927 10.9581 5.86394 10.9115 5.62527C10.7195 4.63861 9.9588 3.87794 8.97347 3.68661C8.70213 3.63394 8.52547 3.37194 8.57813 3.10061C8.6308 2.82927 8.89747 2.65194 9.16413 2.70527C10.5515 2.97461 11.6228 4.04527 11.8928 5.43327C11.9455 5.70527 11.7688 5.96727 11.4981 6.01994C11.4655 6.02594 11.4335 6.02927 11.4015 6.02927Z" fill="white"/>
<g id="Group 8">
<mask id="mask1_11033_18603" style="mask-type:luminance" maskUnits="userSpaceOnUse" x="0" y="0" width="15" height="15">
<path id="Clip 7" fill-rule="evenodd" clip-rule="evenodd" d="M0.333496 0.333496H14.0003V14.0005H0.333496V0.333496Z" fill="white"/>
</mask>
<g mask="url(#mask1_11033_18603)">
<path id="Fill 6" fill-rule="evenodd" clip-rule="evenodd" d="M1.90623 2.37453C1.90756 2.37453 1.87423 2.40919 1.83223 2.45053C1.6709 2.60719 1.3369 2.93319 1.33356 3.61519C1.32823 4.56919 1.95556 6.34053 4.97623 9.36053C7.98223 12.3659 9.7509 13.0005 10.7076 13.0005H10.7216C11.4036 12.9965 11.7289 12.6625 11.8856 12.5019C11.9329 12.4532 11.9716 12.4165 11.9989 12.3945C12.6636 11.7259 13.0036 11.2292 13.0002 10.9099C12.9962 10.5845 12.5916 10.2005 12.0322 9.66786C11.8542 9.49919 11.6609 9.31453 11.4569 9.11053C10.9276 8.58319 10.6669 8.67319 10.0902 8.87586C9.29356 9.15519 8.20223 9.53786 6.50156 7.83586C4.80023 6.13519 5.18156 5.04386 5.45956 4.24653C5.6609 3.67053 5.7529 3.40853 5.22423 2.87919C5.01756 2.67253 4.83156 2.47653 4.66023 2.29653C4.1309 1.74053 3.7489 1.33853 3.42556 1.33386H3.42023C3.1009 1.33386 2.6049 1.67519 1.9029 2.37719C1.9049 2.37519 1.90556 2.37453 1.90623 2.37453ZM10.7076 14.0005C9.04622 14.0005 6.88022 12.6779 4.26955 10.0679C1.64822 7.44719 0.323552 5.27452 0.333552 3.60986C0.339552 2.50986 0.916219 1.94652 1.13289 1.73519C1.14422 1.72119 1.18289 1.68319 1.19622 1.66986C2.15289 0.71319 2.81022 0.319856 3.43822 0.333856C4.18289 0.343856 4.71355 0.901856 5.38489 1.60786C5.55089 1.78186 5.73022 1.97186 5.93088 2.17186C6.90355 3.14519 6.62689 3.93919 6.40355 4.57652C6.16089 5.27186 5.95089 5.87186 7.20822 7.12919C8.46555 8.38652 9.06489 8.17652 9.75955 7.93186C10.3976 7.70919 11.1896 7.43052 12.1642 8.40386C12.3622 8.60186 12.5489 8.77919 12.7222 8.94386C13.4309 9.61852 13.9909 10.1512 14.0002 10.8979C14.0076 11.5339 13.6209 12.1832 12.6662 13.1379L12.2436 12.8512L12.6016 13.1999C12.3902 13.4165 11.8282 13.9939 10.7276 14.0005H10.7076Z" fill="white"/>
</g>
</g>
</g>
</svg>
