<svg width="158" height="32" viewBox="0 0 158 32" fill="none" xmlns="http://www.w3.org/2000/svg">
<g id="Group 1000000833">
<g id="Group 1000000786">
<path id="Path 553" fill-rule="evenodd" clip-rule="evenodd" d="M31.3542 15.6968C31.3542 24.338 24.3382 31.354 15.697 31.354C7.01608 31.354 0 24.338 0 15.6968C0 7.01589 7.01608 0 15.697 0C24.3382 0 31.3542 7.01589 31.3542 15.6968ZM23.1094 14.587L21.3256 11.971C20.8103 12.3277 20.3743 12.5653 20.0175 12.7239V7.65019H16.8464V12.5655C16.5822 12.4863 16.2915 12.4202 15.9744 12.3673C15.3798 12.2484 14.7852 12.2484 14.151 12.288V7.65019H11.0196V12.9619C9.94933 13.3583 8.998 13.8735 8.24486 14.3888L10.1475 16.9258C10.4117 16.7408 10.7025 16.5691 11.0196 16.4106V23.7039H14.151V15.4196C14.587 15.38 15.023 15.3798 15.4194 15.4591C15.7365 15.5384 16.0933 15.6177 16.4501 15.7366C16.5822 15.7631 16.7143 15.8026 16.8464 15.8555V20.3744H20.0175V16.0142C20.8896 15.816 21.9202 15.3797 23.1094 14.587ZM37.5775 12.9221C38.2117 11.8386 39.0705 10.9932 40.154 10.3854C41.211 9.77762 42.4133 9.4738 43.7611 9.4738C45.3202 9.4738 46.6944 9.87019 47.8835 10.663C49.0463 11.4557 49.8655 12.5654 50.3411 13.9924H47.0908C46.7737 13.3317 46.3244 12.8297 45.743 12.4862C45.1616 12.1426 44.4878 11.971 43.7215 11.971C42.9023 11.971 42.1756 12.1692 41.5414 12.5655C40.9071 12.9355 40.4183 13.4771 40.0747 14.1906C39.7312 14.8776 39.5594 15.6839 39.5594 16.6088C39.5594 17.5337 39.7312 18.3526 40.0747 19.066C40.4183 19.7531 40.9071 20.2951 41.5414 20.6915C42.1756 21.0614 42.9023 21.2462 43.7215 21.2462C44.4878 21.2462 45.1616 21.0745 45.743 20.731C46.3244 20.3874 46.7737 19.8854 47.0908 19.2248H50.3411C49.8655 20.6518 49.0463 21.7618 47.8835 22.5546C46.7208 23.3473 45.3466 23.7437 43.7611 23.7437C42.4133 23.7437 41.211 23.4395 40.154 22.8317C39.0705 22.2239 38.2117 21.3785 37.5775 20.2951C36.9697 19.2116 36.6658 17.9829 36.6658 16.6088C36.6658 15.2346 36.9697 14.0055 37.5775 12.9221ZM55.9698 12.8826C56.5512 12.539 57.2251 12.3673 57.9914 12.3673V15.3004H57.2382C56.3662 15.3004 55.7055 15.512 55.2563 15.9348C54.807 16.3576 54.5824 17.0843 54.5824 18.115V23.6245H51.7682V12.5257H54.5824V14.2699C54.926 13.6621 55.3884 13.1997 55.9698 12.8826ZM69.2487 18.9077H61.1228C61.2021 19.7269 61.4928 20.3611 61.9949 20.8103C62.4705 21.2595 63.0784 21.4842 63.8183 21.4842C64.8489 21.4842 65.5888 21.0348 66.0381 20.1364H69.0506C68.7334 21.2198 68.1257 22.1052 67.2272 22.7922C66.3023 23.4793 65.1792 23.8227 63.8579 23.8227C62.8009 23.8227 61.8495 23.5849 61.0039 23.1093C60.1318 22.6336 59.458 21.9599 58.9824 21.0879C58.5331 20.2158 58.3085 19.2114 58.3085 18.0751C58.3085 16.9388 58.5331 15.9347 58.9824 15.0627C59.458 14.1906 60.1187 13.5169 60.9643 13.0413C61.8099 12.5656 62.7745 12.3275 63.8579 12.3275C64.915 12.3275 65.8663 12.5656 66.7119 13.0413C67.5311 13.4905 68.1785 14.1247 68.6542 14.9439C69.1034 15.7895 69.328 16.7539 69.328 17.8374C69.328 18.2338 69.3016 18.5906 69.2487 18.9077ZM66.4345 17.0446C66.408 16.3311 66.1438 15.7496 65.6417 15.3004C65.1396 14.8776 64.5185 14.6663 63.7786 14.6663C63.0915 14.6663 62.5102 14.8776 62.0345 15.3004C61.5589 15.7232 61.2682 16.3047 61.1625 17.0446H66.4345ZM70.7947 15.0627C71.244 14.1906 71.8517 13.5169 72.618 13.0413C73.3844 12.5656 74.2432 12.3275 75.1945 12.3275C76.0137 12.3275 76.7405 12.4996 77.3747 12.8431C77.9825 13.1866 78.4713 13.6091 78.8413 14.1112V12.5257H81.6954V23.6245H78.8413V21.9995C78.4978 22.528 78.0089 22.9639 77.3747 23.3075C76.7405 23.651 76.0006 23.8227 75.155 23.8227C74.2301 23.8227 73.3844 23.5849 72.618 23.1093C71.8517 22.6072 71.244 21.92 70.7947 21.048C70.3455 20.1759 70.1208 19.1719 70.1208 18.0356C70.1208 16.9257 70.3455 15.9347 70.7947 15.0627ZM78.4449 16.3312C78.1806 15.8291 77.8239 15.4592 77.3747 15.2214C76.9254 14.9572 76.4366 14.825 75.9081 14.825C75.3796 14.825 74.8907 14.9437 74.4415 15.1815C74.0186 15.4458 73.6619 15.8157 73.3712 16.2913C73.107 16.7934 72.9748 17.375 72.9748 18.0356C72.9748 18.6962 73.107 19.2778 73.3712 19.7799C73.6619 20.2819 74.0318 20.6783 74.481 20.969C74.9303 21.2333 75.406 21.3654 75.9081 21.3654C76.4366 21.3654 76.9254 21.2333 77.3747 20.969C77.8239 20.7048 78.1806 20.3214 78.4449 19.8193C78.7092 19.3437 78.8413 18.7622 78.8413 18.0751C78.8413 17.388 78.7092 16.8069 78.4449 16.3312ZM87.0466 14.825V20.2157C87.0466 20.5857 87.1258 20.8499 87.2843 21.0085C87.4693 21.1935 87.7732 21.286 88.1961 21.286H89.5042V23.6245H87.76C85.3817 23.6245 84.1925 22.4753 84.1925 20.1762V14.825H82.8845V12.5257H84.1925V9.79083H87.0466V12.5257H89.5042V14.825H87.0466ZM91.1293 10.7419C90.8122 10.4248 90.6536 10.0284 90.6536 9.55277C90.6536 9.0771 90.8122 8.69416 91.1293 8.40348C91.4464 8.08637 91.856 7.92774 92.3581 7.92774C92.8602 7.92774 93.2698 8.08637 93.587 8.40348C93.9305 8.69416 94.1022 9.0771 94.1022 9.55277C94.1022 10.0284 93.9305 10.4248 93.587 10.7419C93.2698 11.059 92.8602 11.2177 92.3581 11.2177C91.856 11.2177 91.4464 11.059 91.1293 10.7419ZM93.7455 23.6245H90.9311V12.5257H93.7455V23.6245ZM100.405 21.048L103.179 12.5257H106.192L102.07 23.6245H98.6606L94.5779 12.5257H97.5904L100.405 21.048Z" fill="#1060FF"/>
<path id="Path 554" fill-rule="evenodd" clip-rule="evenodd" d="M116.776 18.9067H108.65C108.729 19.7259 109.007 20.36 109.482 20.8093C109.984 21.2585 110.592 21.4832 111.306 21.4832C112.363 21.4832 113.103 21.0338 113.525 20.1353H116.578C116.261 21.2188 115.64 22.1041 114.715 22.7912C113.816 23.4783 112.706 23.8217 111.385 23.8217C110.302 23.8217 109.337 23.5839 108.491 23.1082C107.646 22.6326 106.985 21.9589 106.509 21.0868C106.034 20.2148 105.796 19.2104 105.796 18.074C105.796 16.9377 106.034 15.9337 106.509 15.0617C106.985 14.1896 107.633 13.5159 108.452 13.0402C109.297 12.5646 110.275 12.3264 111.385 12.3264C112.442 12.3264 113.38 12.5646 114.199 13.0402C115.045 13.4895 115.706 14.1236 116.181 14.9428C116.631 15.7884 116.855 16.7529 116.855 17.8364C116.855 18.2328 116.829 18.5896 116.776 18.9067ZM113.962 17.0436C113.935 16.3301 113.671 15.7486 113.169 15.2993C112.667 14.8765 112.046 14.6653 111.306 14.6653C110.592 14.6653 110.011 14.8765 109.562 15.2993C109.086 15.7222 108.782 16.3037 108.65 17.0436H113.962ZM133.305 9.63109V23.6235H130.491V17.6777H124.505V23.6235H121.691V9.63109H124.505V15.3787H130.491V9.63109H133.305ZM145.197 12.5246V23.6235H142.382V22.2361C142.012 22.7118 141.537 23.0951 140.955 23.3858C140.374 23.65 139.74 23.7822 139.053 23.7822C138.181 23.7822 137.414 23.597 136.754 23.2271C136.093 22.8571 135.565 22.3155 135.168 21.602C134.798 20.8885 134.613 20.0297 134.613 19.0255V12.5246H137.428V18.6291C137.428 19.5276 137.639 20.2148 138.062 20.6904C138.511 21.1661 139.119 21.4039 139.885 21.4039C140.652 21.4039 141.259 21.1661 141.709 20.6904C142.158 20.2148 142.382 19.5276 142.382 18.6291V12.5246H145.197ZM150.746 12.8421C151.38 12.4985 152.107 12.3264 152.926 12.3264C153.878 12.3264 154.737 12.5646 155.503 13.0402C156.269 13.5159 156.877 14.1896 157.326 15.0617C157.775 15.9073 158 16.8983 158 18.0346C158 19.1709 157.775 20.1749 157.326 21.0469C156.877 21.919 156.269 22.6061 155.503 23.1082C154.737 23.5839 153.878 23.8217 152.926 23.8217C152.081 23.8217 151.354 23.6634 150.746 23.3463C150.112 23.0028 149.61 22.5664 149.24 22.0379V23.6235H146.426V8.79883H149.24V14.1501C149.61 13.6215 150.112 13.1856 150.746 12.8421ZM154.71 16.2903C154.446 15.8146 154.089 15.4448 153.64 15.1805C153.191 14.9427 152.702 14.824 152.173 14.824C151.671 14.824 151.195 14.9561 150.746 15.2204C150.297 15.4582 149.927 15.8281 149.636 16.3302C149.372 16.8323 149.24 17.4134 149.24 18.074C149.24 18.7347 149.372 19.3162 149.636 19.8183C149.927 20.3204 150.297 20.7037 150.746 20.968C151.195 21.2322 151.671 21.3644 152.173 21.3644C152.702 21.3644 153.191 21.2322 153.64 20.968C154.089 20.6773 154.446 20.294 154.71 19.8183C154.974 19.3162 155.106 18.7216 155.106 18.0346C155.106 17.3739 154.974 16.7924 154.71 16.2903Z" fill="#1060FF"/>
</g>
</g>
</svg>
