<svg width="79" height="79" viewBox="0 0 79 79" fill="none" xmlns="http://www.w3.org/2000/svg">
<g clip-path="url(#clip0_10824_95674)">
<path d="M78.1975 62.1757C77.9188 64.7173 75.8602 66.7029 73.309 66.8816C73.0979 66.8966 72.8884 66.9114 72.6787 66.9249C71.1233 67.0305 69.9139 68.3223 69.9139 69.8817V75.7765C69.9139 77.7595 67.6442 78.8848 66.0669 77.6838C63.1885 75.4912 59.3592 72.23 57.0097 68.8483C56.4538 68.0475 55.5354 67.5809 54.5601 67.5863C47.3262 67.6228 40.0923 67.3901 32.8584 66.8816C30.8416 66.7409 29.1292 65.4735 28.3664 63.6907C28.1635 63.2227 28.0281 62.7168 27.97 62.188C26.8987 52.4017 26.8987 42.6141 27.97 32.8263C28.2486 30.2873 30.3086 28.3111 32.8556 28.1325C43.632 27.3763 54.4072 27.225 65.1824 27.678C67.8903 27.7903 70.5997 27.9417 73.3076 28.1325C75.856 28.3111 77.9174 30.2873 78.1961 32.8263C79.2675 42.6098 79.2675 52.392 78.1975 62.1757Z" fill="#78D0B1"/>
<path d="M30.7298 32.5569C29.6326 42.5772 29.6326 52.5986 30.7298 62.617C30.7892 63.1593 30.9279 63.6765 31.1355 64.1564C31.6662 65.3974 32.6466 66.3945 33.869 66.9504C33.5322 66.9285 33.1953 66.9055 32.8583 66.8816C30.8414 66.7409 29.1288 65.4736 28.3664 63.6903C28.1631 63.222 28.0275 62.7162 27.9701 62.1874C26.898 52.4017 26.898 42.6138 27.9701 32.8259C28.2486 30.2875 30.3083 28.3111 32.8551 28.1329C33.3525 28.0984 33.85 28.064 34.3485 28.0327C32.4089 28.7 30.9623 30.4376 30.7298 32.5569Z" fill="#66B49D"/>
<path d="M47.146 58.5214C47.1491 60.1164 49.2429 61.4077 50.8379 61.4077H63.1825C64.466 61.4077 65.5066 60.3671 65.5066 59.0829C65.5066 58.4412 65.2472 57.8593 64.8266 57.4389C64.406 57.0184 63.8243 56.7581 63.1825 56.7581H64.017C65.3004 56.7581 66.3418 55.7183 66.3418 54.4333C66.3418 53.7908 66.0824 53.2105 65.6602 52.7893C65.2404 52.3687 64.6593 52.1093 64.0168 52.1093H64.852C66.1197 52.1093 67.1506 51.0934 67.1753 49.831C67.2015 48.5265 66.104 47.4597 64.7994 47.4597H64.0167C65.3001 47.4597 66.3415 46.4192 66.3415 45.1342C66.3415 44.4917 66.0821 43.9114 65.6599 43.4901C65.2401 43.0695 64.659 42.8102 64.0165 42.8102H57.478C57.4688 42.7955 57.4658 42.791 57.4566 42.7764L60.0063 37.3448C60.7298 35.8049 60.0671 33.9703 58.5272 33.247C58.1045 33.0482 57.6592 32.9546 57.2205 32.9546C56.063 32.9546 54.9542 33.6099 54.4294 34.7268L53.3393 37.0495C52.6953 38.4207 51.6638 39.5798 50.3577 40.3459C49.4955 40.8512 48.7774 41.6219 48.3387 42.6085C48.0395 43.2817 47.9054 43.991 47.9181 44.6873L47.146 58.5214Z" fill="#FFDDCE"/>
<path d="M59.4807 33.9433C59.3758 33.9321 59.2709 33.9268 59.1658 33.9268C58.0083 33.9268 56.8995 34.5821 56.3747 35.6991L55.2846 38.0217C54.6406 39.3929 53.6091 40.552 52.303 41.3181C51.4408 41.8234 48.3393 42.6083 48.2246 48.4838C48.2157 48.9427 48.05 49.3662 47.9285 49.789L47.9188 44.6873C47.906 43.9908 48.0402 43.2817 48.3394 42.6085C48.7779 41.6219 49.4962 40.8512 50.3584 40.3459C51.6644 39.5796 52.696 38.4207 53.34 37.0495L54.4301 34.7268C54.9549 33.6097 56.0637 32.9546 57.2212 32.9546C57.6597 32.9546 58.1052 33.0482 58.5279 33.247C58.8989 33.4209 59.219 33.66 59.4807 33.9433Z" fill="#FFCBBE"/>
<path d="M65.5068 59.0832C65.5068 60.3675 64.4662 61.408 63.1828 61.408H50.5158C49.1753 61.408 47.9324 60.7603 47.1631 59.6956H63.1826C64.164 59.6956 65.0029 59.0877 65.344 58.2271C65.3448 58.2278 65.3448 58.2294 65.3464 58.23C65.3464 58.23 65.3456 58.2308 65.3464 58.2308C65.4499 58.4948 65.5068 58.7827 65.5068 59.0832Z" fill="#FFCBBE"/>
<path d="M66.1781 53.5771C66.283 53.8422 66.3413 54.1311 66.3413 54.4332C66.3413 55.718 65.3009 56.7584 64.017 56.7584H63.1262C62.6533 56.7584 62.27 56.3752 62.27 55.9022C62.27 55.4293 62.6533 55.0461 63.1262 55.0461H64.017C64.9986 55.0462 65.8372 54.4378 66.1781 53.5771Z" fill="#FFCBBE"/>
<path d="M67.013 48.9277C67.1179 49.1928 67.1763 49.4817 67.1763 49.7838C67.1763 51.0686 66.1358 52.109 64.8519 52.109H63.9612C63.4883 52.109 63.105 51.7258 63.105 51.2528C63.105 50.7799 63.4883 50.3966 63.9612 50.3966H64.8519C65.8334 50.3966 66.6722 49.7882 67.013 48.9277Z" fill="#FFCBBE"/>
<path d="M66.179 44.2783C66.2839 44.5434 66.3423 44.8322 66.3423 45.1344C66.3423 46.4192 65.3018 47.4596 64.0179 47.4596H63.1272C62.6543 47.4596 62.271 47.0763 62.271 46.6034C62.271 46.1305 62.6543 45.7472 63.1272 45.7472H64.0179C64.9994 45.7474 65.8382 45.1388 66.179 44.2783Z" fill="#FFCBBE"/>
<path d="M40.688 44.6872V59.1847C40.688 60.1901 41.5031 61.0052 42.5085 61.0052H46.0983C47.1037 61.0052 47.9188 60.1901 47.9188 59.1847V44.6872C47.9188 43.6819 47.1037 42.8667 46.0983 42.8667H42.5085C41.5031 42.8667 40.688 43.6817 40.688 44.6872Z" fill="#F1F4F6"/>
<path d="M40.6875 54.6182V59.185C40.6875 60.1904 41.5031 61.0051 42.5085 61.0051H46.0981C47.1035 61.0051 47.9182 60.1904 47.9182 59.185V54.6182C47.9182 55.6236 47.1035 56.4393 46.0981 56.4393H42.5085C41.5031 56.4392 40.6875 55.6236 40.6875 54.6182Z" fill="#D0E2E7"/>
<path d="M0.771973 34.2397C1.03983 36.6836 3.01946 38.593 5.47263 38.7648C5.67553 38.7791 5.87719 38.7933 6.07871 38.8064C7.57446 38.9078 8.73724 40.15 8.73724 41.6497V47.3179C8.73724 49.2247 10.9198 50.3068 12.4364 49.1519C15.2041 47.0436 18.8863 43.9076 21.1456 40.656C21.6803 39.886 22.5633 39.4372 23.5011 39.4424C30.4571 39.4776 37.413 39.2539 44.369 38.7648C46.3082 38.6294 47.9549 37.4108 48.6886 35.6964C48.8836 35.2463 49.0137 34.76 49.0697 34.2514C50.0998 24.8412 50.0998 15.4295 49.0697 6.01788C48.8017 3.57659 46.8208 1.67627 44.3716 1.50454C34.0091 0.777649 23.648 0.631993 13.2868 1.06757C10.6829 1.17558 8.07762 1.32124 5.47371 1.50454C3.02332 1.67627 1.04122 3.57659 0.773207 6.01803C-0.256879 15.4257 -0.256879 24.8321 0.771973 34.2397Z" fill="#F9DA41"/>
<path d="M3.42674 5.75925C2.37181 15.3946 2.37181 25.0309 3.42674 34.6643C3.48398 35.1858 3.6173 35.6831 3.8168 36.1445C4.32722 37.3378 5.26997 38.2966 6.44525 38.8311C6.12138 38.8101 5.79736 38.7879 5.47349 38.7649C3.53398 38.6296 1.88732 37.4111 1.15426 35.6962C0.958762 35.246 0.828381 34.7595 0.773143 34.2511C-0.257714 24.8415 -0.257714 15.4297 0.773143 6.01785C1.04085 3.57687 3.02156 1.67655 5.47056 1.50497C5.94888 1.47195 6.42735 1.43878 6.9066 1.40869C5.0413 2.05072 3.65032 3.72145 3.42674 5.75925Z" fill="#EDC932"/>
<path d="M33.2809 19.4124C34.744 19.4124 35.934 17.4347 35.934 15.0038C35.934 12.5728 34.744 10.5952 33.2809 10.5952C31.818 10.5952 30.6279 12.5728 30.6279 15.0038C30.6279 17.4347 31.818 19.4124 33.2809 19.4124Z" fill="#21386B"/>
<path d="M16.5622 19.4124C18.0252 19.4124 19.2153 17.4347 19.2153 15.0038C19.2153 12.5728 18.0252 10.5952 16.5622 10.5952C15.0993 10.5952 13.9092 12.5728 13.9092 15.0038C13.9092 17.4347 15.0993 19.4124 16.5622 19.4124Z" fill="#21386B"/>
<path d="M34.0594 22.6528C33.4521 22.3975 32.7534 22.6815 32.4976 23.2882C31.2094 26.3439 28.2354 28.3183 24.9213 28.3183C21.607 28.3183 18.6331 26.3439 17.3449 23.2882C17.0892 22.6815 16.3896 22.3975 15.7831 22.6528C15.1764 22.9087 14.8918 23.6078 15.1477 24.2145C16.8095 28.1558 20.6457 30.7027 24.9211 30.7027C29.1964 30.7027 33.0327 28.1558 34.6945 24.2145C34.9506 23.6078 34.6661 22.9087 34.0594 22.6528Z" fill="#21386B"/>
</g>
<defs>
<clipPath id="clip0_10824_95674">
<rect width="79" height="79" fill="white"/>
</clipPath>
</defs>
</svg>
