<svg width="75" height="76" viewBox="0 0 75 76" fill="none" xmlns="http://www.w3.org/2000/svg">
<path fill-rule="evenodd" clip-rule="evenodd" d="M22.4048 10.3572C21.3543 11.0983 21.7449 11.9358 23.169 11.9618C24.9273 11.9809 26.5561 16.0611 24.9362 16.4559C22.9288 16.9452 16.7989 21.7973 14.8316 24.4407C14.3881 25.071 14.0645 24.8142 12.4165 24.0219C13.8288 21.551 14.9808 20.0018 12.1283 20.6971C10.1562 21.1778 5.8324 26.858 6.22725 28.4779C6.37319 29.0766 8.45013 28.7197 9.55397 27.891C10.8167 26.9489 10.7015 27.0889 12.5233 28.2865L11.9466 29.1358C4.38228 40.1949 5.12326 72.6227 39.9168 68.7308C56.1917 66.9277 66.1431 55.1 64.1576 39.9142L63.8806 37.7059L65.7221 36.9958C69.4844 35.5938 67.6599 30.4049 63.561 30.7322C62.7167 30.7889 61.9437 30.6789 61.8134 30.4494C57.038 21.7264 50.8101 16.3796 48.1857 18.6236C47.3818 19.3045 47.5998 19.5873 49.364 20.09C56.2975 22.0562 62.538 38.7794 60.0696 48.8575C54.53 71.4365 21.6278 73.5991 14.0194 51.8742C6.66996 30.907 22.0508 12.2716 42.7 17.0881C45.4305 17.7284 48.3184 17.0245 49.8407 15.3101L50.9555 14.0684L52.0239 14.7779C55.5796 17.12 57.3552 14.1502 53.8883 11.7121C49.6507 8.71562 44.2877 8.75422 47.1098 11.7598C49.1802 13.9787 47.3359 15.1372 42.9795 14.4083C41.267 14.1167 38.6749 13.8905 37.1889 13.9171L34.5159 13.9715C34.267 12.9504 33.8645 11.1455 33.3003 9.90269C32.8314 8.89774 32.8581 8.85387 34.0554 8.56205C35.4289 8.22724 35.952 7.46554 35.0573 7.1613C34.2317 6.98943 23.3232 9.68564 22.4048 10.3572ZM31.8936 14.387L28.7243 15.1595L28.2178 13.0815C27.677 10.863 27.7301 10.7754 30.02 10.068C30.8832 9.783 30.812 9.94956 31.8936 14.387ZM29.5195 20.4127C28.8271 21.5514 30.8605 25.6076 32.1524 25.703C33.6724 25.8175 33.6868 21.8965 32.1582 20.2173C31.6515 19.669 29.8925 19.7994 29.5195 20.4127ZM23.2211 27.022C24.6544 29.9933 30.1839 35.9952 32.5069 38.6375L32.1381 40.0332C31.6622 41.7535 31.9967 43.1272 32.9432 43.6426C36.8958 45.7759 44.3058 50.4614 47.1305 51.489C50.2715 52.5888 56.2972 50.5232 50.4279 45.4247C47.8653 43.1764 43.098 40.6078 40.3497 38.5167C39.1946 37.6045 38.5451 37.3895 37.8056 37.5697C36.6435 37.853 36.2784 38.651 37.1999 38.9113C37.9547 39.1004 38.4812 40.8004 38.1751 41.9943C37.6716 43.9078 33.73 42.8912 34.1196 40.968C34.2457 40.4151 34.6008 39.8808 34.9527 39.795C35.9036 39.5632 36.335 37.9656 35.4926 37.7232C35.1326 37.6244 34.1184 36.6777 33.2279 35.6264C29.6134 31.3587 26.7304 28.2558 24.8761 26.6186C22.822 24.6194 22.0834 24.6504 23.2211 27.022ZM51.0158 36.663C49.9799 37.9229 51.2442 38.2116 54.3965 37.3685C57.8307 36.457 59.2427 35.5157 57.9974 34.9987C56.971 34.6146 51.6798 35.8671 51.0158 36.663ZM14.6859 46.1899C13.4497 47.0884 14.7218 47.5617 17.2908 47.2339C19.9302 46.889 21.0942 46.3068 20.7558 45.5312C20.3042 44.5967 16.3452 45.0392 14.6859 46.1899ZM39.4249 58.1428C39.6911 60.7643 40.5713 62.0793 41.7688 61.7874C43.3182 61.4097 43.4293 60.4874 42.2114 58.2473C40.7852 55.6101 39.1326 55.5652 39.4249 58.1428Z" fill="#FF0000"/>
</svg>
