<svg width="50" height="50" viewBox="0 0 50 50" fill="none" xmlns="http://www.w3.org/2000/svg">
<g clip-path="url(#clip0_10824_95778)">
<path fill-rule="evenodd" clip-rule="evenodd" d="M25.0181 49.981C38.8132 49.981 49.9991 38.7952 49.9991 25C49.9991 11.2049 38.8132 0.019043 25.0181 0.019043C11.2229 0.019043 0.0371094 11.2049 0.0371094 25C0.0371094 38.7952 11.2219 49.981 25.0181 49.981Z" fill="#003399"/>
<path d="M25.018 5.57031L24.3954 7.48487H22.3813L24.0051 8.66464L23.3942 10.5938L25.018 9.41406L26.6398 10.5938L26.0309 8.66464L27.6547 7.48487H25.6425L25.018 5.57031Z" fill="#FFCC00"/>
<path d="M25.6425 40.7925L25.018 38.8779L24.3954 40.7925H22.3813L24.0051 41.9723L23.3942 43.9014L25.018 42.7217L26.6398 43.9014L26.029 41.9723L27.6527 40.7925H25.6425Z" fill="#FFCC00"/>
<path d="M8.36371 26.0732L9.98748 27.2442L9.37661 25.315L11.0004 24.1353H8.98824L8.36371 22.2207L7.73919 24.1353H5.72705L7.35081 25.315L6.73995 27.2442L8.36371 26.0732Z" fill="#FFCC00"/>
<path d="M16.6865 7.8042L16.0619 9.71973H14.0518L15.6755 10.9132L15.0647 12.8277L16.6865 11.6314L18.3102 12.8248L17.6994 10.9102L19.3241 9.7168H17.3159L16.6865 7.8042Z" fill="#FFCC00"/>
<path d="M10.5986 13.897L9.97405 15.8115H7.96191L9.58568 16.9913L8.96115 18.9205L10.5986 17.7407L12.2223 18.9205L11.5978 16.9913L13.2352 15.8115H11.2221L10.5986 13.897Z" fill="#FFCC00"/>
<path d="M11.2221 32.4658L10.5976 30.5513L9.97308 32.4658H7.96191L9.58568 33.6456L8.96115 35.5748L10.5986 34.395L12.2223 35.5748L11.5978 33.6456L13.2352 32.4658H11.2221Z" fill="#FFCC00"/>
<path d="M17.3149 38.564L16.6865 36.6445L16.0658 38.564H14.0518L15.6755 39.7574L15.0666 41.6671L16.6865 40.4736L18.3102 41.6671L17.6994 39.7525L19.327 38.564H17.3149Z" fill="#FFCC00"/>
<path d="M44.309 24.1392H42.2968L41.6723 22.2246L41.0478 24.1392H39.0327L40.6565 25.3189L40.0485 27.2442L41.6723 26.0732L43.2961 27.2442L42.6852 25.315L44.309 24.1392Z" fill="#FFCC00"/>
<path d="M33.3447 7.8042L32.7201 9.71973H30.708L32.3318 10.9132L31.7209 12.8277L33.3447 11.6314L34.9684 12.8248L34.3576 10.9102L35.9813 9.7168H33.9692L33.3447 7.8042Z" fill="#FFCC00"/>
<path d="M38.4387 16.9913L37.8142 18.9205L39.4379 17.7407L41.0754 18.9205L40.4508 16.9913L42.0746 15.8115H40.0625L39.4379 13.897L38.8134 15.8115H36.8013L38.4387 16.9913Z" fill="#FFCC00"/>
<path d="M40.0615 32.4658L39.437 30.5513L38.8124 32.4658H36.8003L38.4377 33.6456L37.8132 35.5748L39.437 34.395L41.0744 35.5748L40.4499 33.6456L42.0746 32.4658H40.0615Z" fill="#FFCC00"/>
<path d="M33.9692 38.564L33.3447 36.6494L32.7201 38.564H30.708L32.3318 39.7574L31.7209 41.672L33.3447 40.4785L34.9684 41.672L34.3576 39.7574L35.9813 38.564H33.9692Z" fill="#FFCC00"/>
</g>
<defs>
<clipPath id="clip0_10824_95778">
<rect width="50" height="50" fill="white"/>
</clipPath>
</defs>
</svg>
