<svg width="353" height="119" viewBox="0 0 353 119" fill="none" xmlns="http://www.w3.org/2000/svg">
<g filter="url(#filter0_dd_10824_80986)">
<g clip-path="url(#clip0_10824_80986)">
<path d="M13 21.9226C13 19.1845 15.2197 16.9648 17.9577 16.9648H310.042C312.78 16.9648 315 19.1845 315 21.9226V80.0071C315 82.7452 312.78 84.9648 310.042 84.9648H17.9577C15.2196 84.9648 13 82.7452 13 80.0071V21.9226Z" fill="white"/>
<path d="M119.044 51.3809C119.044 50.0809 118.927 48.8309 118.711 47.6309H101.444V54.7309H111.311C110.877 57.0142 109.577 58.9475 107.627 60.2475V64.8642H113.577C117.044 61.6642 119.044 56.9642 119.044 51.3809Z" fill="#4285F4"/>
<path d="M101.443 69.2982C106.393 69.2982 110.543 67.6648 113.577 64.8648L107.627 60.2482C105.993 61.3482 103.91 62.0148 101.443 62.0148C96.6767 62.0148 92.6267 58.7982 91.1767 54.4648H85.0767V59.1982C88.0933 65.1815 94.2767 69.2982 101.443 69.2982Z" fill="#34A853"/>
<path d="M91.1824 54.448C90.8157 53.348 90.5991 52.1814 90.5991 50.9647C90.5991 49.748 90.8157 48.5814 91.1824 47.4814V42.748H85.0824C83.8324 45.2147 83.1157 47.998 83.1157 50.9647C83.1157 53.9314 83.8324 56.7147 85.0824 59.1814L89.8324 55.4814L91.1824 54.448Z" fill="#FBBC05"/>
<path d="M101.443 39.9328C104.143 39.9328 106.543 40.8661 108.46 42.6661L113.71 37.4161C110.527 34.4495 106.393 32.6328 101.443 32.6328C94.2767 32.6328 88.0933 36.7495 85.0767 42.7495L91.1767 47.4828C92.6267 43.1495 96.6767 39.9328 101.443 39.9328Z" fill="#EA4335"/>
<path d="M133.334 44.9691C132.774 44.9691 132.248 44.8711 131.756 44.6751C131.268 44.4751 130.838 44.1831 130.466 43.7991C130.098 43.4151 129.81 42.9451 129.602 42.3891C129.394 41.8291 129.29 41.1891 129.29 40.4691C129.29 39.5251 129.466 38.7191 129.818 38.0511C130.17 37.3791 130.652 36.8651 131.264 36.5091C131.876 36.1491 132.566 35.9691 133.334 35.9691C134.398 35.9691 135.24 36.2171 135.86 36.7131C136.484 37.2051 136.906 37.8971 137.126 38.7891L135.65 39.0231C135.486 38.5111 135.218 38.1031 134.846 37.7991C134.474 37.4911 134 37.3371 133.424 37.3371C132.844 37.3291 132.362 37.4551 131.978 37.7151C131.594 37.9751 131.304 38.3411 131.108 38.8131C130.916 39.2851 130.82 39.8371 130.82 40.4691C130.82 41.1011 130.916 41.6511 131.108 42.1191C131.3 42.5831 131.588 42.9451 131.972 43.2051C132.36 43.4651 132.844 43.5991 133.424 43.6071C133.86 43.6111 134.242 43.5331 134.57 43.3731C134.898 43.2091 135.166 42.9631 135.374 42.6351C135.582 42.3031 135.722 41.8891 135.794 41.3931H134.27V40.2591H137.33C137.338 40.3231 137.344 40.4171 137.348 40.5411C137.352 40.6651 137.354 40.7391 137.354 40.7631C137.354 41.5791 137.192 42.3051 136.868 42.9411C136.548 43.5731 136.088 44.0691 135.488 44.4291C134.888 44.7891 134.17 44.9691 133.334 44.9691ZM141.221 44.9691C140.573 44.9691 140.007 44.8231 139.523 44.5311C139.039 44.2391 138.663 43.8371 138.395 43.3251C138.131 42.8091 137.999 42.2171 137.999 41.5491C137.999 40.8691 138.135 40.2731 138.407 39.7611C138.679 39.2491 139.057 38.8491 139.541 38.5611C140.025 38.2731 140.585 38.1291 141.221 38.1291C141.873 38.1291 142.441 38.2751 142.925 38.5671C143.409 38.8591 143.785 39.2631 144.053 39.7791C144.321 40.2911 144.455 40.8811 144.455 41.5491C144.455 42.2211 144.319 42.8151 144.047 43.3311C143.779 43.8431 143.403 44.2451 142.919 44.5371C142.435 44.8251 141.869 44.9691 141.221 44.9691ZM141.221 43.6131C141.797 43.6131 142.225 43.4211 142.505 43.0371C142.785 42.6531 142.925 42.1571 142.925 41.5491C142.925 40.9211 142.783 40.4211 142.499 40.0491C142.215 39.6731 141.789 39.4851 141.221 39.4851C140.833 39.4851 140.513 39.5731 140.261 39.7491C140.013 39.9211 139.829 40.1631 139.709 40.4751C139.589 40.7831 139.529 41.1411 139.529 41.5491C139.529 42.1771 139.671 42.6791 139.955 43.0551C140.243 43.4271 140.665 43.6131 141.221 43.6131ZM148.439 44.9691C147.791 44.9691 147.225 44.8231 146.741 44.5311C146.257 44.2391 145.881 43.8371 145.613 43.3251C145.349 42.8091 145.217 42.2171 145.217 41.5491C145.217 40.8691 145.353 40.2731 145.625 39.7611C145.897 39.2491 146.275 38.8491 146.759 38.5611C147.243 38.2731 147.803 38.1291 148.439 38.1291C149.091 38.1291 149.659 38.2751 150.143 38.5671C150.627 38.8591 151.003 39.2631 151.271 39.7791C151.539 40.2911 151.673 40.8811 151.673 41.5491C151.673 42.2211 151.537 42.8151 151.265 43.3311C150.997 43.8431 150.621 44.2451 150.137 44.5371C149.653 44.8251 149.087 44.9691 148.439 44.9691ZM148.439 43.6131C149.015 43.6131 149.443 43.4211 149.723 43.0371C150.003 42.6531 150.143 42.1571 150.143 41.5491C150.143 40.9211 150.001 40.4211 149.717 40.0491C149.433 39.6731 149.007 39.4851 148.439 39.4851C148.051 39.4851 147.731 39.5731 147.479 39.7491C147.231 39.9211 147.047 40.1631 146.927 40.4751C146.807 40.7831 146.747 41.1411 146.747 41.5491C146.747 42.1771 146.889 42.6791 147.173 43.0551C147.461 43.4271 147.883 43.6131 148.439 43.6131ZM155.519 47.8491C155.159 47.8491 154.813 47.7931 154.481 47.6811C154.153 47.5691 153.857 47.4071 153.593 47.1951C153.329 46.9871 153.113 46.7351 152.945 46.4391L154.277 45.7791C154.401 46.0151 154.575 46.1891 154.799 46.3011C155.027 46.4171 155.269 46.4751 155.525 46.4751C155.825 46.4751 156.093 46.4211 156.329 46.3131C156.565 46.2091 156.747 46.0531 156.875 45.8451C157.007 45.6411 157.069 45.3851 157.061 45.0771V43.2351H157.241V38.3091H158.507V45.1011C158.507 45.2651 158.499 45.4211 158.483 45.5691C158.471 45.7211 158.449 45.8691 158.417 46.0131C158.321 46.4331 158.137 46.7771 157.865 47.0451C157.593 47.3171 157.255 47.5191 156.851 47.6511C156.451 47.7831 156.007 47.8491 155.519 47.8491ZM155.393 44.9691C154.797 44.9691 154.277 44.8191 153.833 44.5191C153.389 44.2191 153.045 43.8111 152.801 43.2951C152.557 42.7791 152.435 42.1971 152.435 41.5491C152.435 40.8931 152.557 40.3091 152.801 39.7971C153.049 39.2811 153.399 38.8751 153.851 38.5791C154.303 38.2791 154.835 38.1291 155.447 38.1291C156.063 38.1291 156.579 38.2791 156.995 38.5791C157.415 38.8751 157.733 39.2811 157.949 39.7971C158.165 40.3131 158.273 40.8971 158.273 41.5491C158.273 42.1931 158.165 42.7751 157.949 43.2951C157.733 43.8111 157.411 44.2191 156.983 44.5191C156.555 44.8191 156.025 44.9691 155.393 44.9691ZM155.615 43.6731C156.003 43.6731 156.315 43.5851 156.551 43.4091C156.791 43.2291 156.965 42.9791 157.073 42.6591C157.185 42.3391 157.241 41.9691 157.241 41.5491C157.241 41.1251 157.185 40.7551 157.073 40.4391C156.965 40.1191 156.795 39.8711 156.563 39.6951C156.331 39.5151 156.031 39.4251 155.663 39.4251C155.275 39.4251 154.955 39.5211 154.703 39.7131C154.451 39.9011 154.265 40.1571 154.145 40.4811C154.025 40.8011 153.965 41.1571 153.965 41.5491C153.965 41.9451 154.023 42.3051 154.139 42.6291C154.259 42.9491 154.441 43.2031 154.685 43.3911C154.929 43.5791 155.239 43.6731 155.615 43.6731ZM160.11 44.7891V35.9691H161.556V44.7891H160.11ZM166.099 44.9691C165.443 44.9691 164.867 44.8271 164.371 44.5431C163.875 44.2591 163.487 43.8651 163.207 43.3611C162.931 42.8571 162.793 42.2771 162.793 41.6211C162.793 40.9131 162.929 40.2991 163.201 39.7791C163.473 39.2551 163.851 38.8491 164.335 38.5611C164.819 38.2731 165.379 38.1291 166.015 38.1291C166.687 38.1291 167.257 38.2871 167.725 38.6031C168.197 38.9151 168.547 39.3571 168.775 39.9291C169.003 40.5011 169.089 41.1751 169.033 41.9511H167.599V41.4231C167.595 40.7191 167.471 40.2051 167.227 39.8811C166.983 39.5571 166.599 39.3951 166.075 39.3951C165.483 39.3951 165.043 39.5791 164.755 39.9471C164.467 40.3111 164.323 40.8451 164.323 41.5491C164.323 42.2051 164.467 42.7131 164.755 43.0731C165.043 43.4331 165.463 43.6131 166.015 43.6131C166.371 43.6131 166.677 43.5351 166.933 43.3791C167.193 43.2191 167.393 42.9891 167.533 42.6891L168.961 43.1211C168.713 43.7051 168.329 44.1591 167.809 44.4831C167.293 44.8071 166.723 44.9691 166.099 44.9691ZM163.867 41.9511V40.8591H168.325V41.9511H163.867ZM172.374 44.7891V36.1491H175.944C176.028 36.1491 176.136 36.1531 176.268 36.1611C176.4 36.1651 176.522 36.1771 176.634 36.1971C177.134 36.2731 177.546 36.4391 177.87 36.6951C178.198 36.9511 178.44 37.2751 178.596 37.6671C178.756 38.0551 178.836 38.4871 178.836 38.9631C178.836 39.6671 178.658 40.2731 178.302 40.7811C177.946 41.2851 177.4 41.5971 176.664 41.7171L176.046 41.7711H173.82V44.7891H172.374ZM177.336 44.7891L175.632 41.2731L177.102 40.9491L178.974 44.7891H177.336ZM173.82 40.4211H175.884C175.964 40.4211 176.054 40.4171 176.154 40.4091C176.254 40.4011 176.346 40.3851 176.43 40.3611C176.67 40.3011 176.858 40.1951 176.994 40.0431C177.134 39.8911 177.232 39.7191 177.288 39.5271C177.348 39.3351 177.378 39.1471 177.378 38.9631C177.378 38.7791 177.348 38.5911 177.288 38.3991C177.232 38.2031 177.134 38.0291 176.994 37.8771C176.858 37.7251 176.67 37.6191 176.43 37.5591C176.346 37.5351 176.254 37.5211 176.154 37.5171C176.054 37.5091 175.964 37.5051 175.884 37.5051H173.82V40.4211ZM181.908 44.9691C181.44 44.9691 181.044 44.8811 180.72 44.7051C180.396 44.5251 180.15 44.2871 179.982 43.9911C179.818 43.6951 179.736 43.3691 179.736 43.0131C179.736 42.7011 179.788 42.4211 179.892 42.1731C179.996 41.9211 180.156 41.7051 180.372 41.5251C180.588 41.3411 180.868 41.1911 181.212 41.0751C181.472 40.9911 181.776 40.9151 182.124 40.8471C182.476 40.7791 182.856 40.7171 183.264 40.6611C183.676 40.6011 184.106 40.5371 184.554 40.4691L184.038 40.7631C184.042 40.3151 183.942 39.9851 183.738 39.7731C183.534 39.5611 183.19 39.4551 182.706 39.4551C182.414 39.4551 182.132 39.5231 181.86 39.6591C181.588 39.7951 181.398 40.0291 181.29 40.3611L179.97 39.9471C180.13 39.3991 180.434 38.9591 180.882 38.6271C181.334 38.2951 181.942 38.1291 182.706 38.1291C183.282 38.1291 183.788 38.2231 184.224 38.4111C184.664 38.5991 184.99 38.9071 185.202 39.3351C185.318 39.5631 185.388 39.7971 185.412 40.0371C185.436 40.2731 185.448 40.5311 185.448 40.8111V44.7891H184.182V43.3851L184.392 43.6131C184.1 44.0811 183.758 44.4251 183.366 44.6451C182.978 44.8611 182.492 44.9691 181.908 44.9691ZM182.196 43.8171C182.524 43.8171 182.804 43.7591 183.036 43.6431C183.268 43.5271 183.452 43.3851 183.588 43.2171C183.728 43.0491 183.822 42.8911 183.87 42.7431C183.946 42.5591 183.988 42.3491 183.996 42.1131C184.008 41.8731 184.014 41.6791 184.014 41.5311L184.458 41.6631C184.022 41.7311 183.648 41.7911 183.336 41.8431C183.024 41.8951 182.756 41.9451 182.532 41.9931C182.308 42.0371 182.11 42.0871 181.938 42.1431C181.77 42.2031 181.628 42.2731 181.512 42.3531C181.396 42.4331 181.306 42.5251 181.242 42.6291C181.182 42.7331 181.152 42.8551 181.152 42.9951C181.152 43.1551 181.192 43.2971 181.272 43.4211C181.352 43.5411 181.468 43.6371 181.62 43.7091C181.776 43.7811 181.968 43.8171 182.196 43.8171ZM190.608 44.7891C190.18 44.8691 189.76 44.9031 189.348 44.8911C188.94 44.8831 188.574 44.8091 188.25 44.6691C187.926 44.5251 187.68 44.2991 187.512 43.9911C187.364 43.7111 187.286 43.4251 187.278 43.1331C187.27 42.8411 187.266 42.5111 187.266 42.1431V36.5091H188.706V42.0591C188.706 42.3191 188.708 42.5471 188.712 42.7431C188.72 42.9391 188.762 43.0991 188.838 43.2231C188.982 43.4631 189.212 43.5971 189.528 43.6251C189.844 43.6531 190.204 43.6371 190.608 43.5771V44.7891ZM186.09 39.4431V38.3091H190.608V39.4431H186.09ZM191.921 37.3251V35.9991H193.367V37.3251H191.921ZM191.921 44.7891V38.3091H193.367V44.7891H191.921ZM199.447 44.7891V41.6691C199.447 41.4651 199.433 41.2391 199.405 40.9911C199.377 40.7431 199.311 40.5051 199.207 40.2771C199.107 40.0451 198.955 39.8551 198.751 39.7071C198.551 39.5591 198.279 39.4851 197.935 39.4851C197.751 39.4851 197.569 39.5151 197.389 39.5751C197.209 39.6351 197.045 39.7391 196.897 39.8871C196.753 40.0311 196.637 40.2311 196.549 40.4871C196.461 40.7391 196.417 41.0631 196.417 41.4591L195.559 41.0931C195.559 40.5411 195.665 40.0411 195.877 39.5931C196.093 39.1451 196.409 38.7891 196.825 38.5251C197.241 38.2571 197.753 38.1231 198.361 38.1231C198.841 38.1231 199.237 38.2031 199.549 38.3631C199.861 38.5231 200.109 38.7271 200.293 38.9751C200.477 39.2231 200.613 39.4871 200.701 39.7671C200.789 40.0471 200.845 40.3131 200.869 40.5651C200.897 40.8131 200.911 41.0151 200.911 41.1711V44.7891H199.447ZM194.953 44.7891V38.3091H196.243V40.3191H196.417V44.7891H194.953ZM205 47.8491C204.64 47.8491 204.294 47.7931 203.962 47.6811C203.634 47.5691 203.338 47.4071 203.074 47.1951C202.81 46.9871 202.594 46.7351 202.426 46.4391L203.758 45.7791C203.882 46.0151 204.056 46.1891 204.28 46.3011C204.508 46.4171 204.75 46.4751 205.006 46.4751C205.306 46.4751 205.574 46.4211 205.81 46.3131C206.046 46.2091 206.228 46.0531 206.356 45.8451C206.488 45.6411 206.55 45.3851 206.542 45.0771V43.2351H206.722V38.3091H207.988V45.1011C207.988 45.2651 207.98 45.4211 207.964 45.5691C207.952 45.7211 207.93 45.8691 207.898 46.0131C207.802 46.4331 207.618 46.7771 207.346 47.0451C207.074 47.3171 206.736 47.5191 206.332 47.6511C205.932 47.7831 205.488 47.8491 205 47.8491ZM204.874 44.9691C204.278 44.9691 203.758 44.8191 203.314 44.5191C202.87 44.2191 202.526 43.8111 202.282 43.2951C202.038 42.7791 201.916 42.1971 201.916 41.5491C201.916 40.8931 202.038 40.3091 202.282 39.7971C202.53 39.2811 202.88 38.8751 203.332 38.5791C203.784 38.2791 204.316 38.1291 204.928 38.1291C205.544 38.1291 206.06 38.2791 206.476 38.5791C206.896 38.8751 207.214 39.2811 207.43 39.7971C207.646 40.3131 207.754 40.8971 207.754 41.5491C207.754 42.1931 207.646 42.7751 207.43 43.2951C207.214 43.8111 206.892 44.2191 206.464 44.5191C206.036 44.8191 205.506 44.9691 204.874 44.9691ZM205.096 43.6731C205.484 43.6731 205.796 43.5851 206.032 43.4091C206.272 43.2291 206.446 42.9791 206.554 42.6591C206.666 42.3391 206.722 41.9691 206.722 41.5491C206.722 41.1251 206.666 40.7551 206.554 40.4391C206.446 40.1191 206.276 39.8711 206.044 39.6951C205.812 39.5151 205.512 39.4251 205.144 39.4251C204.756 39.4251 204.436 39.5211 204.184 39.7131C203.932 39.9011 203.746 40.1571 203.626 40.4811C203.506 40.8011 203.446 41.1571 203.446 41.5491C203.446 41.9451 203.504 42.3051 203.62 42.6291C203.74 42.9491 203.922 43.2031 204.166 43.3911C204.41 43.5791 204.72 43.6731 205.096 43.6731Z" fill="#6A6A6A"/>
<path d="M134.251 62.4648V60.7988H129.785V59.2238L133.012 52.3848H134.937L131.71 59.2238H134.251V56.5988H135.959V59.2238H136.904V60.7988H135.959V62.4648H134.251ZM138.289 62.4648V60.7358H140.018V62.4648H138.289ZM145.216 52.1888C145.874 52.1888 146.466 52.3452 146.994 52.6578C147.521 52.9658 147.936 53.3952 148.24 53.9458C148.548 54.4918 148.702 55.1218 148.702 55.8358V58.9088C148.702 59.6695 148.548 60.3345 148.24 60.9038C147.936 61.4685 147.509 61.9048 146.959 62.2128C146.408 62.5208 145.764 62.6748 145.027 62.6748C144.518 62.6748 144.037 62.5885 143.585 62.4158C143.132 62.2385 142.726 61.9678 142.367 61.6038L143.578 60.4208C143.76 60.6308 143.977 60.7965 144.229 60.9178C144.485 61.0345 144.751 61.0928 145.027 61.0928C145.419 61.0928 145.762 61.0018 146.056 60.8198C146.35 60.6332 146.578 60.3928 146.742 60.0988C146.905 59.8002 146.987 59.4805 146.987 59.1398V57.4668L147.288 57.8028C147.003 58.1388 146.658 58.4025 146.252 58.5938C145.846 58.7805 145.419 58.8738 144.971 58.8738C144.341 58.8738 143.781 58.7292 143.291 58.4398C142.805 58.1505 142.423 57.7585 142.143 57.2638C141.867 56.7645 141.73 56.1998 141.73 55.5698C141.73 54.9398 141.888 54.3705 142.206 53.8618C142.523 53.3485 142.945 52.9425 143.473 52.6438C144.005 52.3405 144.586 52.1888 145.216 52.1888ZM145.216 53.7988C144.889 53.7988 144.59 53.8782 144.32 54.0368C144.049 54.1955 143.834 54.4102 143.676 54.6808C143.517 54.9468 143.438 55.2432 143.438 55.5698C143.438 55.8965 143.515 56.1952 143.669 56.4658C143.827 56.7365 144.04 56.9512 144.306 57.1098C144.576 57.2685 144.875 57.3478 145.202 57.3478C145.528 57.3478 145.827 57.2685 146.098 57.1098C146.368 56.9512 146.583 56.7365 146.742 56.4658C146.905 56.1952 146.987 55.8965 146.987 55.5698C146.987 55.2525 146.907 54.9608 146.749 54.6948C146.59 54.4242 146.375 54.2072 146.105 54.0438C145.839 53.8805 145.542 53.7988 145.216 53.7988Z" fill="#FEA500"/>
<path d="M167.917 49.9061C168.145 49.4474 168.799 49.4474 169.027 49.9061L170.888 53.6517C170.978 53.8333 171.152 53.9592 171.352 53.9889L175.49 54.6014C175.996 54.6764 176.198 55.2986 175.833 55.6571L172.845 58.5844C172.701 58.7264 172.634 58.9302 172.668 59.1302L173.364 63.2543C173.449 63.7593 172.92 64.1438 172.466 63.9067L168.759 61.9704C168.579 61.8765 168.365 61.8765 168.185 61.9704L164.478 63.9067C164.024 64.1438 163.495 63.7593 163.58 63.2543L164.276 59.1302C164.31 58.9302 164.243 58.7264 164.099 58.5844L161.111 55.6571C160.746 55.2986 160.948 54.6764 161.454 54.6014L165.592 53.9889C165.792 53.9592 165.966 53.8333 166.056 53.6517L167.917 49.9061Z" fill="#FEA500"/>
<path d="M185.269 49.9061C185.497 49.4474 186.151 49.4474 186.379 49.9061L188.24 53.6517C188.33 53.8333 188.504 53.9592 188.704 53.9889L192.842 54.6014C193.348 54.6764 193.55 55.2986 193.185 55.6571L190.197 58.5844C190.053 58.7264 189.986 58.9302 190.02 59.1302L190.716 63.2543C190.801 63.7593 190.272 64.1438 189.818 63.9067L186.111 61.9704C185.931 61.8765 185.717 61.8765 185.537 61.9704L181.83 63.9067C181.376 64.1438 180.847 63.7593 180.932 63.2543L181.628 59.1302C181.662 58.9302 181.595 58.7264 181.451 58.5844L178.463 55.6571C178.098 55.2986 178.3 54.6764 178.806 54.6014L182.944 53.9889C183.144 53.9592 183.318 53.8333 183.408 53.6517L185.269 49.9061Z" fill="#FEA500"/>
<path d="M202.621 49.9061C202.849 49.4474 203.503 49.4474 203.731 49.9061L205.592 53.6517C205.682 53.8333 205.856 53.9592 206.056 53.9889L210.194 54.6014C210.7 54.6764 210.902 55.2986 210.537 55.6571L207.549 58.5844C207.405 58.7264 207.338 58.9302 207.372 59.1302L208.068 63.2543C208.153 63.7593 207.624 64.1438 207.17 63.9067L203.463 61.9704C203.283 61.8765 203.069 61.8765 202.889 61.9704L199.182 63.9067C198.728 64.1438 198.199 63.7593 198.284 63.2543L198.98 59.1302C199.014 58.9302 198.947 58.7264 198.803 58.5844L195.815 55.6571C195.45 55.2986 195.652 54.6764 196.158 54.6014L200.296 53.9889C200.496 53.9592 200.67 53.8333 200.76 53.6517L202.621 49.9061Z" fill="#FEA500"/>
<path d="M219.973 49.9061C220.201 49.4474 220.855 49.4474 221.083 49.9061L222.944 53.6517C223.034 53.8333 223.208 53.9592 223.408 53.9889L227.546 54.6014C228.052 54.6764 228.254 55.2986 227.889 55.6571L224.902 58.5844C224.757 58.7264 224.69 58.9302 224.724 59.1302L225.42 63.2543C225.505 63.7593 224.976 64.1438 224.522 63.9067L220.815 61.9704C220.635 61.8765 220.421 61.8765 220.241 61.9704L216.534 63.9067C216.08 64.1438 215.551 63.7593 215.636 63.2543L216.332 59.1302C216.366 58.9302 216.3 58.7264 216.155 58.5844L213.168 55.6571C212.802 55.2986 213.004 54.6764 213.511 54.6014L217.648 53.9889C217.848 53.9592 218.022 53.8333 218.112 53.6517L219.973 49.9061Z" fill="#FEA500"/>
<path d="M237.325 49.9061C237.553 49.4474 238.207 49.4474 238.435 49.9061L240.296 53.6517C240.386 53.8333 240.56 53.9592 240.76 53.9889L244.898 54.6014C245.404 54.6764 245.607 55.2986 245.241 55.6571L242.254 58.5844C242.109 58.7264 242.042 58.9302 242.076 59.1302L242.772 63.2543C242.857 63.7593 242.328 64.1438 241.874 63.9067L238.167 61.9704C237.987 61.8765 237.773 61.8765 237.593 61.9704L233.886 63.9067C233.432 64.1438 232.903 63.7593 232.988 63.2543L233.684 59.1302C233.718 58.9302 233.652 58.7264 233.507 58.5844L230.52 55.6571C230.154 55.2986 230.356 54.6764 230.863 54.6014L235 53.9889C235.201 53.9592 235.374 53.8333 235.464 53.6517L237.325 49.9061Z" fill="#FEA500"/>
</g>
</g>
<defs>
<filter id="filter0_dd_10824_80986" x="0.605634" y="0.852167" width="351.577" height="117.577" filterUnits="userSpaceOnUse" color-interpolation-filters="sRGB">
<feFlood flood-opacity="0" result="BackgroundImageFix"/>
<feColorMatrix in="SourceAlpha" type="matrix" values="0 0 0 0 0 0 0 0 0 0 0 0 0 0 0 0 0 0 127 0" result="hardAlpha"/>
<feOffset dx="12.3944" dy="8.67606"/>
<feGaussianBlur stdDeviation="12.3944"/>
<feComposite in2="hardAlpha" operator="out"/>
<feColorMatrix type="matrix" values="0 0 0 0 0 0 0 0 0 0 0 0 0 0 0 0 0 0 0.08 0"/>
<feBlend mode="normal" in2="BackgroundImageFix" result="effect1_dropShadow_10824_80986"/>
<feColorMatrix in="SourceAlpha" type="matrix" values="0 0 0 0 0 0 0 0 0 0 0 0 0 0 0 0 0 0 127 0" result="hardAlpha"/>
<feOffset dx="-2.47887" dy="-1.23944"/>
<feGaussianBlur stdDeviation="4.95775"/>
<feComposite in2="hardAlpha" operator="out"/>
<feColorMatrix type="matrix" values="0 0 0 0 0 0 0 0 0 0 0 0 0 0 0 0 0 0 0.08 0"/>
<feBlend mode="normal" in2="effect1_dropShadow_10824_80986" result="effect2_dropShadow_10824_80986"/>
<feBlend mode="normal" in="SourceGraphic" in2="effect2_dropShadow_10824_80986" result="shape"/>
</filter>
<clipPath id="clip0_10824_80986">
<path d="M13 21.9226C13 19.1845 15.2197 16.9648 17.9577 16.9648H310.042C312.78 16.9648 315 19.1845 315 21.9226V80.0071C315 82.7452 312.78 84.9648 310.042 84.9648H17.9577C15.2196 84.9648 13 82.7452 13 80.0071V21.9226Z" fill="white"/>
</clipPath>
</defs>
</svg>
