<svg width="47" height="273" viewBox="0 0 47 273" fill="none" xmlns="http://www.w3.org/2000/svg">
<path d="M44.3213 1.22591C44.6277 0.766435 45.2486 0.642363 45.708 0.948791C46.1675 1.25522 46.2916 1.87611 45.9852 2.33559L44.3213 1.22591ZM39.9926 272.732L29.872 267.172L39.7468 261.187L39.9926 272.732ZM45.9852 2.33559C45.4333 3.16308 44.8863 3.99267 44.344 4.82433L42.6687 3.73201C43.2147 2.89453 43.7656 2.05916 44.3213 1.22591L45.9852 2.33559ZM41.1426 9.84901C40.091 11.5385 39.0592 13.2362 38.0473 14.9419L36.3272 13.9216C37.3464 12.2035 38.3856 10.4936 39.4446 8.79215L41.1426 9.84901ZM35.0629 20.0993C34.0856 21.8313 33.1286 23.5714 32.1924 25.3193L30.4294 24.375C31.3726 22.6141 32.3366 20.8612 33.3211 19.1164L35.0629 20.0993ZM29.4376 30.6026C28.538 32.3759 27.6595 34.157 26.8023 35.9458L24.9987 35.0815C25.8624 33.2791 26.7476 31.4845 27.6539 29.6978L29.4376 30.6026ZM24.2896 41.3464C23.4718 43.1582 22.6758 44.9775 21.9017 46.8042L20.0602 46.0238C20.8404 44.1829 21.6426 42.3494 22.4667 40.5236L24.2896 41.3464ZM19.6418 52.3156C18.9097 54.1625 18.1999 56.0167 17.5127 57.878L15.6365 57.1853C16.3292 55.3091 17.0447 53.4402 17.7825 51.5786L19.6418 52.3156ZM15.5165 63.4899C14.8734 65.3689 14.2532 67.255 13.6561 69.1478L11.7487 68.546C12.3507 66.6378 12.976 64.7365 13.6243 62.8423L15.5165 63.4899ZM11.9335 74.8488C11.3826 76.756 10.855 78.6698 10.351 80.5902L8.41652 80.0824C8.92469 78.1462 9.45663 76.2166 10.0121 74.2938L11.9335 74.8488ZM8.91043 86.3686C8.45425 88.2999 8.02186 90.2374 7.61346 92.1812L5.6562 91.7699C6.06801 89.8099 6.50402 87.8562 6.96399 85.9088L8.91043 86.3686ZM6.46187 98.0233C6.10262 99.9739 5.76747 101.931 5.45667 103.893L3.48129 103.58C3.79472 101.601 4.13268 99.6281 4.49495 97.6611L6.46187 98.0233ZM4.59891 109.786C4.33808 111.751 4.10159 113.722 3.88968 115.698L1.90108 115.485C2.11479 113.492 2.35327 111.505 2.6163 109.523L4.59891 109.786ZM3.32918 121.627C3.16743 123.602 3.03021 125.583 2.91773 127.568L0.920932 127.455C1.03436 125.453 1.17274 123.455 1.33585 121.463L3.32918 121.627ZM2.65552 133.516C2.62423 134.508 2.59911 135.501 2.58018 136.494L0.580542 136.456C0.599632 135.454 0.624965 134.453 0.656514 133.453L2.65552 133.516ZM2.58018 136.494C2.56125 137.488 2.54855 138.481 2.54206 139.473L0.542099 139.46C0.548647 138.46 0.561452 137.459 0.580542 136.456L2.58018 136.494ZM2.57759 145.427C2.61438 147.416 2.67608 149.4 2.76249 151.38L0.764388 151.467C0.677253 149.47 0.615029 147.469 0.577935 145.464L2.57759 145.427ZM3.09683 157.326C3.23335 159.308 3.39462 161.287 3.58044 163.26L1.58925 163.448C1.40186 161.457 1.23922 159.462 1.10156 157.463L3.09683 157.326ZM4.21316 169.182C4.44902 171.155 4.70941 173.123 4.99413 175.085L3.01484 175.373C2.72773 173.393 2.46514 171.409 2.2273 169.419L4.21316 169.182ZM5.92243 180.967C6.25651 182.925 6.61481 184.878 6.99711 186.825L5.03458 187.21C4.6491 185.247 4.2878 183.278 3.95092 181.304L5.92243 180.967ZM8.21662 192.654C8.64713 194.592 9.10146 196.525 9.57938 198.452L7.6382 198.933C7.15635 196.99 6.69828 195.042 6.2642 193.088L8.21662 192.654ZM11.0836 204.214C11.6082 206.128 12.1562 208.037 12.7273 209.939L10.8117 210.514C10.236 208.596 9.68361 206.673 9.15472 204.743L11.0836 204.214ZM14.5083 215.623C15.1241 217.509 15.7628 219.389 16.424 221.262L14.5381 221.928C13.8716 220.039 13.2278 218.145 12.6071 216.243L14.5083 215.623ZM18.4724 226.855C19.1764 228.71 19.9026 230.559 20.6508 232.4L18.7979 233.153C18.0439 231.297 17.312 229.434 16.6026 227.565L18.4724 226.855ZM22.956 237.893C23.7444 239.713 24.5545 241.526 25.3859 243.332L23.5691 244.168C22.7314 242.349 21.9152 240.522 21.1208 238.688L22.956 237.893ZM27.9375 248.717C28.8065 250.499 29.6965 252.274 30.6072 254.042L28.8292 254.958C27.9118 253.177 27.0153 251.389 26.1398 249.593L27.9375 248.717ZM33.3931 259.309C34.3392 261.052 35.3057 262.788 36.2921 264.516L34.5552 265.508C33.5617 263.767 32.5883 262.019 31.6353 260.264L33.3931 259.309ZM44.3213 1.22591C44.6277 0.766435 45.2486 0.642363 45.708 0.948791C46.1675 1.25522 46.2916 1.87611 45.9852 2.33559L44.3213 1.22591ZM39.9926 272.732L29.872 267.172L39.7468 261.187L39.9926 272.732ZM45.9852 2.33559C45.4333 3.16308 44.8863 3.99267 44.344 4.82433L42.6687 3.73201C43.2147 2.89453 43.7656 2.05916 44.3213 1.22591L45.9852 2.33559ZM41.1426 9.84901C40.091 11.5385 39.0592 13.2362 38.0473 14.9419L36.3272 13.9216C37.3464 12.2035 38.3856 10.4936 39.4446 8.79215L41.1426 9.84901ZM35.0629 20.0993C34.0856 21.8313 33.1286 23.5714 32.1924 25.3193L30.4294 24.375C31.3726 22.6141 32.3366 20.8612 33.3211 19.1164L35.0629 20.0993ZM29.4376 30.6026C28.538 32.3759 27.6595 34.157 26.8023 35.9458L24.9987 35.0815C25.8624 33.2791 26.7476 31.4845 27.6539 29.6978L29.4376 30.6026ZM24.2896 41.3464C23.4718 43.1582 22.6758 44.9775 21.9017 46.8042L20.0602 46.0238C20.8404 44.1829 21.6426 42.3494 22.4667 40.5236L24.2896 41.3464ZM19.6418 52.3156C18.9097 54.1625 18.1999 56.0167 17.5127 57.878L15.6365 57.1853C16.3292 55.3091 17.0447 53.4402 17.7825 51.5786L19.6418 52.3156ZM15.5165 63.4899C14.8734 65.3689 14.2532 67.255 13.6561 69.1478L11.7487 68.546C12.3507 66.6378 12.976 64.7365 13.6243 62.8423L15.5165 63.4899ZM11.9335 74.8488C11.3826 76.756 10.855 78.6698 10.351 80.5902L8.41652 80.0824C8.92469 78.1462 9.45663 76.2166 10.0121 74.2938L11.9335 74.8488ZM8.91043 86.3686C8.45425 88.2999 8.02186 90.2374 7.61346 92.1812L5.6562 91.7699C6.06801 89.8099 6.50402 87.8562 6.96399 85.9088L8.91043 86.3686ZM6.46187 98.0233C6.10262 99.9739 5.76747 101.931 5.45667 103.893L3.48129 103.58C3.79472 101.601 4.13268 99.6281 4.49495 97.6611L6.46187 98.0233ZM4.59891 109.786C4.33808 111.751 4.10159 113.722 3.88968 115.698L1.90108 115.485C2.11479 113.492 2.35327 111.505 2.6163 109.523L4.59891 109.786ZM3.32918 121.627C3.16743 123.602 3.03021 125.583 2.91773 127.568L0.920932 127.455C1.03436 125.453 1.17274 123.455 1.33585 121.463L3.32918 121.627ZM2.65552 133.516C2.62423 134.508 2.59911 135.501 2.58018 136.494L0.580542 136.456C0.599632 135.454 0.624965 134.453 0.656514 133.453L2.65552 133.516ZM2.58018 136.494C2.56125 137.488 2.54855 138.481 2.54206 139.473L0.542099 139.46C0.548647 138.46 0.561452 137.459 0.580542 136.456L2.58018 136.494ZM2.57759 145.427C2.61438 147.416 2.67608 149.4 2.76249 151.38L0.764388 151.467C0.677253 149.47 0.615029 147.469 0.577935 145.464L2.57759 145.427ZM3.09683 157.326C3.23335 159.308 3.39462 161.287 3.58044 163.26L1.58925 163.448C1.40186 161.457 1.23922 159.462 1.10156 157.463L3.09683 157.326ZM4.21316 169.182C4.44902 171.155 4.70941 173.123 4.99413 175.085L3.01484 175.373C2.72773 173.393 2.46514 171.409 2.2273 169.419L4.21316 169.182ZM5.92243 180.967C6.25651 182.925 6.61481 184.878 6.99711 186.825L5.03458 187.21C4.6491 185.247 4.2878 183.278 3.95092 181.304L5.92243 180.967ZM8.21662 192.654C8.64713 194.592 9.10146 196.525 9.57938 198.452L7.6382 198.933C7.15635 196.99 6.69828 195.042 6.2642 193.088L8.21662 192.654ZM11.0836 204.214C11.6082 206.128 12.1562 208.037 12.7273 209.939L10.8117 210.514C10.236 208.596 9.68361 206.673 9.15472 204.743L11.0836 204.214ZM14.5083 215.623C15.1241 217.509 15.7628 219.389 16.424 221.262L14.5381 221.928C13.8716 220.039 13.2278 218.145 12.6071 216.243L14.5083 215.623ZM18.4724 226.855C19.1764 228.71 19.9026 230.559 20.6508 232.4L18.7979 233.153C18.0439 231.297 17.312 229.434 16.6026 227.565L18.4724 226.855ZM22.956 237.893C23.7444 239.713 24.5545 241.526 25.3859 243.332L23.5691 244.168C22.7314 242.349 21.9152 240.522 21.1208 238.688L22.956 237.893ZM27.9375 248.717C28.8065 250.499 29.6965 252.274 30.6072 254.042L28.8292 254.958C27.9118 253.177 27.0153 251.389 26.1398 249.593L27.9375 248.717ZM33.3931 259.309C34.3392 261.052 35.3057 262.788 36.2921 264.516L34.5552 265.508C33.5617 263.767 32.5883 262.019 31.6353 260.264L33.3931 259.309Z" fill="#75BE49"/>
</svg>
