<svg width="33" height="32" viewBox="0 0 33 32" fill="none" xmlns="http://www.w3.org/2000/svg">
<path d="M16.6001 20C18.8092 20 20.6001 18.2091 20.6001 16C20.6001 13.7909 18.8092 12 16.6001 12C14.391 12 12.6001 13.7909 12.6001 16C12.6001 18.2091 14.391 20 16.6001 20Z" fill="#E0E0E0"/>
<path d="M22.1001 3.5H11.1001C9.24423 3.5021 7.46497 4.24027 6.15267 5.55257C4.84037 6.86487 4.1022 8.64413 4.1001 10.5V21.5C4.1022 23.3559 4.84037 25.1351 6.15267 26.4474C7.46497 27.7597 9.24423 28.4979 11.1001 28.5H22.1001C23.956 28.4979 25.7352 27.7597 27.0475 26.4474C28.3598 25.1351 29.098 23.3559 29.1001 21.5V10.5C29.098 8.64413 28.3598 6.86487 27.0475 5.55257C25.7352 4.24027 23.956 3.5021 22.1001 3.5ZM16.6001 22C15.4134 22 14.2534 21.6481 13.2667 20.9888C12.28 20.3295 11.5109 19.3925 11.0568 18.2961C10.6027 17.1997 10.4839 15.9933 10.7154 14.8295C10.9469 13.6656 11.5183 12.5965 12.3575 11.7574C13.1966 10.9182 14.2657 10.3468 15.4296 10.1153C16.5934 9.88378 17.7998 10.0026 18.8962 10.4567C19.9926 10.9108 20.9296 11.6799 21.5889 12.6666C22.2482 13.6533 22.6001 14.8133 22.6001 16C22.5983 17.5907 21.9656 19.1158 20.8408 20.2407C19.7159 21.3655 18.1908 21.9982 16.6001 22ZM23.1001 11C22.8034 11 22.5134 10.912 22.2667 10.7472C22.0201 10.5824 21.8278 10.3481 21.7143 10.074C21.6007 9.79994 21.571 9.49834 21.6289 9.20736C21.6868 8.91639 21.8297 8.64912 22.0394 8.43934C22.2492 8.22956 22.5165 8.0867 22.8075 8.02882C23.0984 7.97094 23.4 8.00065 23.6741 8.11418C23.9482 8.22771 24.1825 8.41997 24.3473 8.66665C24.5121 8.91332 24.6001 9.20333 24.6001 9.5C24.6001 9.89782 24.4421 10.2794 24.1608 10.5607C23.8795 10.842 23.4979 11 23.1001 11Z" fill="#E0E0E0"/>
</svg>
