<svg width="33" height="32" viewBox="0 0 33 32" fill="none" xmlns="http://www.w3.org/2000/svg">
<path d="M26.2002 4H6.2002C5.66995 4.00061 5.16159 4.21151 4.78665 4.58646C4.41171 4.9614 4.2008 5.46975 4.2002 6V26C4.2008 26.5302 4.41171 27.0386 4.78665 27.4135C5.16159 27.7885 5.66995 27.9994 6.2002 28H26.2002C26.7304 27.9994 27.2388 27.7885 27.6137 27.4135C27.9887 27.0386 28.1996 26.5302 28.2002 26V6C28.1996 5.46975 27.9887 4.9614 27.6137 4.58646C27.2388 4.21151 26.7304 4.00061 26.2002 4ZM12.2002 22.0001C12.2002 22.2653 12.0948 22.5197 11.9073 22.7072C11.7198 22.8948 11.4654 23.0001 11.2002 23.0001C10.935 23.0001 10.6806 22.8948 10.4931 22.7072C10.3056 22.5197 10.2002 22.2653 10.2002 22.0001V14.0001C10.2002 13.7349 10.3056 13.4805 10.4931 13.293C10.6806 13.1055 10.935 13.0001 11.2002 13.0001C11.4654 13.0001 11.7198 13.1055 11.9073 13.293C12.0948 13.4805 12.2002 13.7349 12.2002 14.0001V22.0001ZM11.2002 11.5001C10.9035 11.5001 10.6135 11.4121 10.3668 11.2473C10.1202 11.0825 9.92791 10.8482 9.81438 10.5741C9.70084 10.3001 9.67114 9.99845 9.72902 9.70748C9.7869 9.41651 9.92976 9.14924 10.1395 8.93946C10.3493 8.72968 10.6166 8.58682 10.9076 8.52894C11.1985 8.47106 11.5001 8.50077 11.7742 8.6143C12.0483 8.72783 12.2826 8.92009 12.4474 9.16676C12.6122 9.41344 12.7002 9.70345 12.7002 10.0001C12.7002 10.3979 12.5422 10.7795 12.2609 11.0608C11.9796 11.3421 11.598 11.5001 11.2002 11.5001ZM23.2002 22.0001C23.2002 22.2653 23.0948 22.5197 22.9073 22.7072C22.7198 22.8948 22.4654 23.0001 22.2002 23.0001C21.935 23.0001 21.6806 22.8948 21.4931 22.7072C21.3056 22.5197 21.2002 22.2653 21.2002 22.0001V17.5001C21.2002 16.8371 20.9368 16.2012 20.468 15.7324C19.9991 15.2635 19.3632 15.0001 18.7002 15.0001C18.0372 15.0001 17.4013 15.2635 16.9324 15.7324C16.4636 16.2012 16.2002 16.8371 16.2002 17.5001V22.0001C16.2002 22.2653 16.0948 22.5197 15.9073 22.7072C15.7198 22.8948 15.4654 23.0001 15.2002 23.0001C14.935 23.0001 14.6806 22.8948 14.4931 22.7072C14.3056 22.5197 14.2002 22.2653 14.2002 22.0001V14.0001C14.2001 13.7543 14.2906 13.5171 14.4544 13.3338C14.6182 13.1504 14.8437 13.0339 15.088 13.0064C15.3323 12.9789 15.5781 13.0423 15.7786 13.1847C15.979 13.327 16.12 13.5381 16.1746 13.7778C16.8508 13.3182 17.6396 13.0517 18.456 13.0069C19.2725 12.9621 20.0857 13.1407 20.8082 13.5235C21.5307 13.9063 22.1352 14.4788 22.5567 15.1795C22.9781 15.8801 23.2006 16.6825 23.2002 17.5001V22.0001Z" fill="#E0E0E0"/>
</svg>
