<svg width="46" height="273" viewBox="0 0 46 273" fill="none" xmlns="http://www.w3.org/2000/svg">
<path d="M43.8969 1.22591C44.2034 0.766435 44.8243 0.642363 45.2837 0.948791C45.7432 1.25522 45.8673 1.87611 45.5609 2.33559L43.8969 1.22591ZM39.5683 272.732L29.4477 267.172L39.3225 261.187L39.5683 272.732ZM45.5609 2.33559C45.009 3.16308 44.4619 3.99267 43.9197 4.82433L42.2443 3.73201C42.7904 2.89453 43.3412 2.05916 43.8969 1.22591L45.5609 2.33559ZM40.7183 9.84901C39.6667 11.5385 38.6349 13.2362 37.623 14.9419L35.9029 13.9216C36.922 12.2035 37.9612 10.4936 39.0203 8.79215L40.7183 9.84901ZM34.6386 20.0993C33.6612 21.8313 32.7043 23.5714 31.7681 25.3193L30.005 24.375C30.9483 22.6141 31.9123 20.8612 32.8968 19.1164L34.6386 20.0993ZM29.0132 30.6026C28.1136 32.3759 27.2351 34.157 26.378 35.9458L24.5744 35.0815C25.4381 33.2791 26.3232 31.4845 27.2296 29.6978L29.0132 30.6026ZM23.8653 41.3464C23.0475 43.1582 22.2515 44.9775 21.4774 46.8042L19.6359 46.0238C20.4161 44.1829 21.2183 42.3494 22.0424 40.5236L23.8653 41.3464ZM19.2175 52.3156C18.4854 54.1625 17.7756 56.0167 17.0884 57.878L15.2122 57.1853C15.9049 55.3091 16.6203 53.4402 17.3582 51.5786L19.2175 52.3156ZM15.0922 63.4899C14.4491 65.3689 13.8289 67.255 13.2318 69.1478L11.3244 68.546C11.9264 66.6378 12.5517 64.7365 13.2 62.8423L15.0922 63.4899ZM11.5092 74.8488C10.9583 76.756 10.4307 78.6698 9.92669 80.5902L7.99221 80.0824C8.50038 78.1462 9.03232 76.2166 9.58779 74.2938L11.5092 74.8488ZM8.48611 86.3686C8.02994 88.2999 7.59754 90.2374 7.18915 92.1812L5.23188 91.7699C5.64369 89.8099 6.0797 87.8562 6.53967 85.9088L8.48611 86.3686ZM6.03755 98.0233C5.6783 99.9739 5.34316 101.931 5.03235 103.893L3.05697 103.58C3.3704 101.601 3.70836 99.6281 4.07063 97.6611L6.03755 98.0233ZM4.1746 109.786C3.91376 111.751 3.67728 113.722 3.46537 115.698L1.47677 115.485C1.69047 113.492 1.92895 111.505 2.19199 109.523L4.1746 109.786ZM2.90486 121.627C2.74312 123.602 2.60589 125.583 2.49341 127.568L0.496616 127.455C0.610043 125.453 0.748424 123.455 0.911534 121.463L2.90486 121.627ZM2.2312 133.516C2.19992 134.508 2.17479 135.501 2.15586 136.494L0.156226 136.456C0.175315 135.454 0.200648 134.453 0.232197 133.453L2.2312 133.516ZM2.15586 136.494C2.13693 137.488 2.12423 138.481 2.11774 139.473L0.117783 139.46C0.124331 138.46 0.137136 137.459 0.156226 136.456L2.15586 136.494ZM2.15328 145.427C2.19006 147.416 2.25176 149.4 2.33817 151.38L0.340071 151.467C0.252936 149.47 0.190713 147.469 0.153618 145.464L2.15328 145.427ZM2.67252 157.326C2.80903 159.308 2.97031 161.287 3.15613 163.26L1.16493 163.448C0.977545 161.457 0.814906 159.462 0.677239 157.463L2.67252 157.326ZM3.78884 169.182C4.0247 171.155 4.2851 173.123 4.56981 175.085L2.59052 175.373C2.30342 173.393 2.04083 171.409 1.80298 169.419L3.78884 169.182ZM5.49811 180.967C5.83219 182.925 6.1905 184.878 6.5728 186.825L4.61026 187.21C4.22478 185.247 3.86348 183.278 3.52661 181.304L5.49811 180.967ZM7.7923 192.654C8.22281 194.592 8.67714 196.525 9.15506 198.452L7.21389 198.933C6.73204 196.99 6.27396 195.042 5.83989 193.088L7.7923 192.654ZM10.6593 204.214C11.1839 206.128 11.7319 208.037 12.3029 209.939L10.3874 210.514C9.81171 208.596 9.2593 206.673 8.7304 204.743L10.6593 204.214ZM14.084 215.623C14.6998 217.509 15.3385 219.389 15.9997 221.262L14.1137 221.928C13.4473 220.039 12.8035 218.145 12.1827 216.243L14.084 215.623ZM18.0481 226.855C18.7521 228.71 19.4783 230.559 20.2265 232.4L18.3736 233.153C17.6196 231.297 16.8877 229.434 16.1782 227.565L18.0481 226.855ZM22.5316 237.893C23.3201 239.713 24.1301 241.526 24.9616 243.332L23.1448 244.168C22.3071 242.349 21.4909 240.522 20.6964 238.688L22.5316 237.893ZM27.5132 248.717C28.3822 250.499 29.2722 252.274 30.1829 254.042L28.4049 254.958C27.4875 253.177 26.591 251.389 25.7155 249.593L27.5132 248.717ZM32.9688 259.309C33.9149 261.052 34.8813 262.788 35.8678 264.516L34.1308 265.508C33.1374 263.767 32.164 262.019 31.211 260.264L32.9688 259.309ZM43.8969 1.22591C44.2034 0.766435 44.8243 0.642363 45.2837 0.948791C45.7432 1.25522 45.8673 1.87611 45.5609 2.33559L43.8969 1.22591ZM39.5683 272.732L29.4477 267.172L39.3225 261.187L39.5683 272.732ZM45.5609 2.33559C45.009 3.16308 44.4619 3.99267 43.9197 4.82433L42.2443 3.73201C42.7904 2.89453 43.3412 2.05916 43.8969 1.22591L45.5609 2.33559ZM40.7183 9.84901C39.6667 11.5385 38.6349 13.2362 37.623 14.9419L35.9029 13.9216C36.922 12.2035 37.9612 10.4936 39.0203 8.79215L40.7183 9.84901ZM34.6386 20.0993C33.6612 21.8313 32.7043 23.5714 31.7681 25.3193L30.005 24.375C30.9483 22.6141 31.9123 20.8612 32.8968 19.1164L34.6386 20.0993ZM29.0132 30.6026C28.1136 32.3759 27.2351 34.157 26.378 35.9458L24.5744 35.0815C25.4381 33.2791 26.3232 31.4845 27.2296 29.6978L29.0132 30.6026ZM23.8653 41.3464C23.0475 43.1582 22.2515 44.9775 21.4774 46.8042L19.6359 46.0238C20.4161 44.1829 21.2183 42.3494 22.0424 40.5236L23.8653 41.3464ZM19.2175 52.3156C18.4854 54.1625 17.7756 56.0167 17.0884 57.878L15.2122 57.1853C15.9049 55.3091 16.6203 53.4402 17.3582 51.5786L19.2175 52.3156ZM15.0922 63.4899C14.4491 65.3689 13.8289 67.255 13.2318 69.1478L11.3244 68.546C11.9264 66.6378 12.5517 64.7365 13.2 62.8423L15.0922 63.4899ZM11.5092 74.8488C10.9583 76.756 10.4307 78.6698 9.92669 80.5902L7.99221 80.0824C8.50038 78.1462 9.03232 76.2166 9.58779 74.2938L11.5092 74.8488ZM8.48611 86.3686C8.02994 88.2999 7.59754 90.2374 7.18915 92.1812L5.23188 91.7699C5.64369 89.8099 6.0797 87.8562 6.53967 85.9088L8.48611 86.3686ZM6.03755 98.0233C5.6783 99.9739 5.34316 101.931 5.03235 103.893L3.05697 103.58C3.3704 101.601 3.70836 99.6281 4.07063 97.6611L6.03755 98.0233ZM4.1746 109.786C3.91376 111.751 3.67728 113.722 3.46537 115.698L1.47677 115.485C1.69047 113.492 1.92895 111.505 2.19199 109.523L4.1746 109.786ZM2.90486 121.627C2.74312 123.602 2.60589 125.583 2.49341 127.568L0.496616 127.455C0.610043 125.453 0.748424 123.455 0.911534 121.463L2.90486 121.627ZM2.2312 133.516C2.19992 134.508 2.17479 135.501 2.15586 136.494L0.156226 136.456C0.175315 135.454 0.200648 134.453 0.232197 133.453L2.2312 133.516ZM2.15586 136.494C2.13693 137.488 2.12423 138.481 2.11774 139.473L0.117783 139.46C0.124331 138.46 0.137136 137.459 0.156226 136.456L2.15586 136.494ZM2.15328 145.427C2.19006 147.416 2.25176 149.4 2.33817 151.38L0.340071 151.467C0.252936 149.47 0.190713 147.469 0.153618 145.464L2.15328 145.427ZM2.67252 157.326C2.80903 159.308 2.97031 161.287 3.15613 163.26L1.16493 163.448C0.977545 161.457 0.814906 159.462 0.677239 157.463L2.67252 157.326ZM3.78884 169.182C4.0247 171.155 4.2851 173.123 4.56981 175.085L2.59052 175.373C2.30342 173.393 2.04083 171.409 1.80298 169.419L3.78884 169.182ZM5.49811 180.967C5.83219 182.925 6.1905 184.878 6.5728 186.825L4.61026 187.21C4.22478 185.247 3.86348 183.278 3.52661 181.304L5.49811 180.967ZM7.7923 192.654C8.22281 194.592 8.67714 196.525 9.15506 198.452L7.21389 198.933C6.73204 196.99 6.27396 195.042 5.83989 193.088L7.7923 192.654ZM10.6593 204.214C11.1839 206.128 11.7319 208.037 12.3029 209.939L10.3874 210.514C9.81171 208.596 9.2593 206.673 8.7304 204.743L10.6593 204.214ZM14.084 215.623C14.6998 217.509 15.3385 219.389 15.9997 221.262L14.1137 221.928C13.4473 220.039 12.8035 218.145 12.1827 216.243L14.084 215.623ZM18.0481 226.855C18.7521 228.71 19.4783 230.559 20.2265 232.4L18.3736 233.153C17.6196 231.297 16.8877 229.434 16.1782 227.565L18.0481 226.855ZM22.5316 237.893C23.3201 239.713 24.1301 241.526 24.9616 243.332L23.1448 244.168C22.3071 242.349 21.4909 240.522 20.6964 238.688L22.5316 237.893ZM27.5132 248.717C28.3822 250.499 29.2722 252.274 30.1829 254.042L28.4049 254.958C27.4875 253.177 26.591 251.389 25.7155 249.593L27.5132 248.717ZM32.9688 259.309C33.9149 261.052 34.8813 262.788 35.8678 264.516L34.1308 265.508C33.1374 263.767 32.164 262.019 31.211 260.264L32.9688 259.309Z" fill="#FF8800"/>
</svg>
