<svg width="82" height="82" viewBox="0 0 82 82" fill="none" xmlns="http://www.w3.org/2000/svg">
<path d="M43.8716 15.375H38.1284C38.1284 15.375 24.3438 76.7401 24.3438 76.875H57.6562C57.6562 76.7401 43.8716 15.375 43.8716 15.375Z" fill="#FFE18A"/>
<path d="M41 80.7188C50.199 80.7188 57.6562 78.9978 57.6562 76.875C57.6562 74.7522 50.199 73.0312 41 73.0312C31.801 73.0312 24.3438 74.7522 24.3438 76.875C24.3438 78.9978 31.801 80.7188 41 80.7188Z" fill="#E6CB7C"/>
<path d="M73.0312 56.375C75.1541 56.375 76.875 54.6541 76.875 52.5312C76.875 50.4084 75.1541 48.6875 73.0312 48.6875C70.9084 48.6875 69.1875 50.4084 69.1875 52.5312C69.1875 54.6541 70.9084 56.375 73.0312 56.375Z" fill="#3D7FCC"/>
<path d="M66.625 61.5V67.9062L69.1875 69.1875V79.4375H76.875V69.1875L79.4375 67.9062V61.5C79.4375 60.1408 78.8975 58.8372 77.9364 57.8761C76.9753 56.915 75.6717 56.375 74.3125 56.375H71.75C70.3908 56.375 69.0872 56.915 68.1261 57.8761C67.165 58.8372 66.625 60.1408 66.625 61.5Z" fill="#3D7FCC"/>
<path d="M8.96875 56.375C11.0916 56.375 12.8125 54.6541 12.8125 52.5312C12.8125 50.4084 11.0916 48.6875 8.96875 48.6875C6.84591 48.6875 5.125 50.4084 5.125 52.5312C5.125 54.6541 6.84591 56.375 8.96875 56.375Z" fill="#3D7FCC"/>
<path d="M2.5625 61.5V67.9062L5.125 69.1875V79.4375H12.8125V69.1875L15.375 67.9062V61.5C15.375 60.1408 14.835 58.8372 13.8739 57.8761C12.9128 56.915 11.6092 56.375 10.25 56.375H7.6875C6.32827 56.375 5.0247 56.915 4.06358 57.8761C3.10245 58.8372 2.5625 60.1408 2.5625 61.5Z" fill="#3D7FCC"/>
<path d="M41 53.8125C43.1228 53.8125 44.8438 52.0916 44.8438 49.9688C44.8438 47.8459 43.1228 46.125 41 46.125C38.8772 46.125 37.1562 47.8459 37.1562 49.9688C37.1562 52.0916 38.8772 53.8125 41 53.8125Z" fill="#448FE6"/>
<path d="M34.5938 58.9375V65.3438L37.1562 66.625V76.875H44.8438V66.625L47.4062 65.3438V58.9375C47.4062 57.5783 46.8663 56.2747 45.9052 55.3136C44.944 54.3525 43.6405 53.8125 42.2812 53.8125H39.7188C38.3595 53.8125 37.056 54.3525 36.0948 55.3136C35.1337 56.2747 34.5938 57.5783 34.5938 58.9375Z" fill="#448FE6"/>
<path d="M41 1.28125L44.9591 9.29419L53.8125 10.5793L47.4062 16.8177L48.9181 25.625L41 21.4661L33.0819 25.625L34.5938 16.8177L28.1875 10.5793L37.0409 9.29419L41 1.28125Z" fill="#E67373"/>
</svg>
