<svg width="87" height="24" viewBox="0 0 87 24" fill="none" xmlns="http://www.w3.org/2000/svg">
<g clip-path="url(#clip0_5786_75195)">
<path d="M0.488281 0.0546875H18.1306V17.5291H0.488281V0.0546875Z" fill="#EC008B"/>
<path d="M9.6894 2.89453H12.0752C12.3567 2.89453 12.5501 3.07275 12.5046 3.28866L12.1198 5.1232C12.0728 5.33911 11.8064 5.51635 11.5249 5.51635H9.13713C8.85561 5.51635 8.66466 5.33911 8.70971 5.1232L9.09404 3.28866C9.13958 3.07275 9.40788 2.89453 9.6894 2.89453Z" fill="black"/>
<path d="M5.02348 5.95312H7.41127C7.69279 5.95312 7.88619 6.12987 7.84065 6.34628L7.45436 8.18081C7.40931 8.3982 7.14297 8.57543 6.86145 8.57543H4.47366C4.19214 8.57543 3.99875 8.39869 4.04624 8.18081L4.43058 6.34628C4.47611 6.12987 4.74245 5.95312 5.02348 5.95312Z" fill="black"/>
<path d="M9.04444 5.95312H11.4303C11.7118 5.95312 11.9052 6.12987 11.8597 6.34628L11.4753 8.18081C11.4283 8.3982 11.1615 8.57543 10.8804 8.57543H8.49462C8.2131 8.57543 8.01971 8.39869 8.06524 8.18081L8.45202 6.34628C8.49462 6.12987 8.76292 5.95312 9.04444 5.95312Z" fill="black"/>
<path d="M8.40382 9.00977H10.7896C11.0712 9.00977 11.2646 9.18651 11.219 9.4039L10.8347 11.2394C10.7896 11.4543 10.5209 11.6316 10.2398 11.6316H7.85399C7.57247 11.6316 7.37908 11.4543 7.42461 11.2394L7.8114 9.4039C7.85399 9.18651 8.12279 9.00977 8.40382 9.00977Z" fill="black"/>
<path d="M11.7554 12.0684H14.1437C14.4252 12.0684 14.6186 12.2451 14.5711 12.4625L14.1867 14.2975C14.1417 14.5129 13.8754 14.6897 13.5938 14.6897H11.2056C10.924 14.6897 10.7306 14.5129 10.7762 14.2975L11.1605 12.4625C11.2075 12.2456 11.4739 12.0684 11.7554 12.0684Z" fill="black"/>
<path d="M7.75929 12.0684H10.1451C10.4286 12.0684 10.62 12.2451 10.5745 12.4625L10.1902 14.2975C10.1451 14.5129 9.87632 14.6897 9.59529 14.6897H7.20946C6.92794 14.6897 6.73455 14.5129 6.78008 14.2975L7.16687 12.4625C7.21142 12.2456 7.47776 12.0684 7.75929 12.0684Z" fill="black"/>
<path d="M22.8295 12.1026V7.90627H21.9453V6.69108H22.8295V4.60831H24.3688V6.69108H25.4582V7.90627H24.3688V12.1859C24.3688 12.6525 24.4139 12.955 24.5045 13.0946C24.5926 13.2326 24.7566 13.3032 24.9975 13.3032C25.0856 13.3032 25.2256 13.2958 25.4088 13.2816C25.443 13.2762 25.4709 13.2733 25.4925 13.2733V14.4459C25.3505 14.489 25.2129 14.5208 25.0709 14.5423C24.9309 14.5634 24.7914 14.5732 24.6445 14.5732C23.9537 14.5732 23.4802 14.4043 23.2193 14.0655C22.9612 13.7276 22.8295 13.0725 22.8295 12.1026ZM28.0174 8.86148V9.62967H29.5821V8.86148C29.5821 8.49281 29.5219 8.225 29.3971 8.05756C29.2722 7.8906 29.0744 7.80737 28.8032 7.80737C28.5295 7.80737 28.3317 7.8906 28.2044 8.05756C28.08 8.22451 28.0174 8.49281 28.0174 8.86148ZM31.0588 11.756V12.2084C31.0588 12.9658 30.8541 13.5543 30.4477 13.9744C30.0365 14.394 29.4622 14.6021 28.7214 14.6021C27.9723 14.6021 27.4127 14.3734 27.0382 13.9176C26.668 13.4593 26.4825 12.7685 26.4825 11.8402V9.33982C26.4825 8.39881 26.67 7.70064 27.0509 7.25167C27.4298 6.80222 28.0198 6.57798 28.8179 6.57798C29.5973 6.57798 30.1829 6.83306 30.5677 7.34568C30.9555 7.86074 31.1488 8.63725 31.1488 9.67324V10.8444H28.0169V12.3078C28.0169 12.674 28.0795 12.9443 28.2044 13.1161C28.3312 13.287 28.5295 13.3722 28.8032 13.3722C29.0744 13.3722 29.2722 13.287 29.3971 13.1161C29.5219 12.9443 29.5821 12.674 29.5821 12.3078V11.7555H31.0588V11.756ZM32.529 3.99925H34.0444V14.4586H32.529V3.99925ZM37.1636 8.86148V9.62967H38.7284V8.86148C38.7284 8.49281 38.6657 8.225 38.5409 8.05756C38.416 7.8906 38.2177 7.80737 37.9465 7.80737C37.6733 7.80737 37.473 7.8906 37.3482 8.05756C37.2238 8.22451 37.1636 8.49281 37.1636 8.86148ZM40.205 11.756V12.2084C40.205 12.9658 39.9984 13.5543 39.5896 13.9744C39.1808 14.394 38.606 14.6021 37.8652 14.6021C37.1161 14.6021 36.5565 14.3734 36.182 13.9176C35.8118 13.4593 35.6248 12.7685 35.6248 11.8402V9.33982C35.6248 8.39881 35.8143 7.70064 36.1971 7.25167C36.5741 6.80222 37.1656 6.57798 37.9621 6.57798C38.7435 6.57798 39.3267 6.83306 39.712 7.34568C40.0978 7.86074 40.2936 8.63725 40.2936 9.67324V10.8444H37.1641V12.3078C37.1641 12.674 37.2243 12.9443 37.3492 13.1161C37.474 13.287 37.6743 13.3722 37.9475 13.3722C38.2187 13.3722 38.417 13.287 38.5418 13.1161C38.6667 12.9443 38.7293 12.674 38.7293 12.3078V11.7555H40.205V11.756ZM43.5436 11.2615C43.7997 11.2615 43.9764 11.146 44.0734 10.9154C44.1723 10.6862 44.2197 10.2118 44.2197 9.50237C44.2197 8.78608 44.1727 8.31166 44.0734 8.08302C43.9764 7.85143 43.7997 7.73589 43.5436 7.73589C43.2919 7.73589 43.1152 7.85143 43.0139 8.08302C42.915 8.31166 42.8655 8.78608 42.8655 9.50237C42.8655 10.2118 42.9145 10.6862 43.0139 10.9154C43.1152 11.146 43.2919 11.2615 43.5436 11.2615ZM43.4491 14.5041C43.1779 14.5737 42.9669 14.6784 42.8141 14.817C42.6569 14.9565 42.5796 15.1127 42.5796 15.287C42.5796 15.5186 42.6873 15.6929 42.8983 15.8138C43.1093 15.9333 43.4237 15.994 43.83 15.994C44.2109 15.994 44.5233 15.9211 44.7603 15.78C45.0011 15.6351 45.1196 15.4569 45.1196 15.243C45.1196 15.0212 44.9904 14.8488 44.7324 14.7328C44.4694 14.6182 44.043 14.5399 43.4491 14.5041ZM42.4523 12.2505C42.0694 12.0571 41.7918 11.7599 41.6278 11.3619C41.4623 10.9653 41.3801 10.3768 41.3801 9.60078C41.3801 8.54716 41.5632 7.7775 41.9294 7.29769C42.2995 6.81935 42.8826 6.57798 43.6792 6.57798C44.0454 6.57798 44.3593 6.63331 44.6217 6.74542C44.8846 6.85999 45.102 7.0338 45.2788 7.26979C45.4056 7.04212 45.5691 6.87468 45.7649 6.76158C45.9588 6.6475 46.1914 6.59169 46.4602 6.59169H46.5659V7.84801C46.467 7.83822 46.3916 7.83185 46.3422 7.82647C46.2927 7.82206 46.2477 7.81863 46.2149 7.81863C46.0944 7.81863 45.9804 7.83381 45.879 7.86221C45.7757 7.89011 45.6851 7.93369 45.5994 7.99489C45.6489 8.19562 45.6876 8.41692 45.7111 8.66662C45.737 8.91632 45.7478 9.18805 45.7478 9.47936C45.7478 10.4728 45.5715 11.213 45.218 11.7031C44.8611 12.1883 44.327 12.4336 43.6058 12.4336C43.5265 12.4336 43.4638 12.4336 43.4188 12.4307C43.3757 12.4287 43.3345 12.4243 43.2983 12.4189C43.1867 12.484 43.0961 12.559 43.0378 12.6388C42.9801 12.7254 42.9478 12.8096 42.9478 12.8983C42.9478 12.9849 42.9889 13.0583 43.0726 13.1186C43.1544 13.1803 43.2601 13.2165 43.3894 13.2307C43.5035 13.2459 43.6665 13.2635 43.878 13.2894C44.5561 13.3683 44.9933 13.4451 45.1867 13.5186C45.643 13.6909 45.9764 13.8956 46.1899 14.1394C46.4029 14.3817 46.5062 14.678 46.5062 15.0246C46.5062 15.6048 46.2438 16.0738 45.7116 16.4332C45.1843 16.7935 44.4871 16.9742 43.6215 16.9742C42.8185 16.9742 42.1967 16.8537 41.757 16.6148C41.3228 16.3744 41.1029 16.0317 41.1029 15.5906C41.1029 15.313 41.2146 15.0687 41.4364 14.8601C41.6581 14.65 41.994 14.4757 42.4376 14.3323C42.1531 14.2574 41.9382 14.1467 41.7943 14.0023C41.6498 13.8549 41.5788 13.6708 41.5788 13.45C41.5788 13.2282 41.6498 13.0182 41.7943 12.818C41.9377 12.6177 42.1575 12.4287 42.4523 12.2505ZM47.2783 14.4586V6.69108H48.703V7.72316C48.9116 7.33882 49.1593 7.05975 49.4394 6.87713C49.7238 6.69549 50.07 6.59708 50.4793 6.57798L50.4857 8.13736C50.3975 8.11484 50.2962 8.09575 50.1865 8.08497C50.0769 8.07225 49.9432 8.06686 49.7904 8.06686C49.4247 8.06686 49.1726 8.16086 49.0262 8.34985C48.8798 8.53786 48.8093 8.90653 48.8093 9.45194V14.4591H47.2783V14.4586ZM54.3388 14.4586L54.1817 13.6767C53.9682 13.9631 53.7229 14.181 53.4561 14.324C53.1848 14.4713 52.8984 14.5443 52.6017 14.5443C52.1067 14.5443 51.7126 14.3817 51.4159 14.0522C51.1231 13.7271 50.9767 13.2841 50.9767 12.722C50.9767 11.9798 51.2245 11.3315 51.7283 10.7768C52.2321 10.225 53.0389 9.71143 54.1518 9.24141V8.81742C54.1518 8.45707 54.0916 8.20003 53.9731 8.0365C53.8527 7.87396 53.6632 7.79219 53.4027 7.79219C53.1442 7.79219 52.9356 7.88424 52.7853 8.06441C52.6345 8.24605 52.5503 8.49673 52.544 8.81742H51.0889C51.1344 8.11043 51.3709 7.5611 51.8037 7.16795C52.2365 6.7748 52.8196 6.57749 53.5535 6.57749C54.3134 6.57749 54.8583 6.78117 55.1898 7.19047C55.5237 7.59635 55.6892 8.26662 55.6892 9.19735V12.7656C55.6892 13.1225 55.7019 13.4402 55.7278 13.7183C55.7518 13.9974 55.7925 14.2427 55.8483 14.4581H54.3388V14.4586ZM54.1513 10.4571C53.5834 10.7185 53.1633 11.004 52.8965 11.3095C52.6296 11.616 52.496 11.9646 52.496 12.3489C52.496 12.6172 52.5586 12.8317 52.6835 12.9908C52.8103 13.1519 52.9743 13.2312 53.1848 13.2312C53.3508 13.2312 53.5143 13.1807 53.6754 13.0774C53.8389 12.9736 53.9961 12.8165 54.1513 12.6094V10.4571ZM57.6667 14.4586V7.89011H56.7604V6.69059H57.6667V5.71041C57.6667 5.03671 57.791 4.56963 58.0412 4.30917C58.2904 4.04674 58.7384 3.91602 59.3817 3.91602H60.1852V5.08812H59.8473C59.5932 5.08812 59.4165 5.14051 59.3259 5.2492C59.2334 5.35789 59.1883 5.57479 59.1883 5.90037V6.69108H60.1396V7.8906H59.1883V14.4591H57.6667V14.4586ZM61.2569 3.99925H62.7703V5.46169H61.2569V3.99925ZM61.2569 6.69108H62.7703V14.4586H61.2569V6.69108ZM64.3243 12.7949H65.9948V14.4591H64.3243V12.7949ZM71.987 11.756V12.2084C71.987 12.9658 71.7824 13.5543 71.3735 13.9744C70.9647 14.394 70.388 14.6021 69.6472 14.6021C68.9001 14.6021 68.3385 14.3734 67.9659 13.9176C67.5958 13.4593 67.4088 12.7685 67.4088 11.8402V9.33982C67.4088 8.41203 67.5958 7.72071 67.9659 7.26244C68.338 6.80613 68.9001 6.57749 69.6472 6.57749C70.3983 6.57749 70.9775 6.79096 71.3799 7.22132C71.7848 7.64727 71.987 8.25634 71.987 9.049V9.39466H70.5128V8.85806C70.5128 8.49232 70.4506 8.22451 70.3253 8.05707C70.1985 7.89011 70.0002 7.80688 69.7314 7.80688C69.4563 7.80688 69.258 7.89011 69.1331 8.05707C69.0058 8.22451 68.9456 8.49281 68.9456 8.85806V12.3078C68.9456 12.674 69.0058 12.9443 69.1331 13.1161C69.258 13.287 69.4558 13.3722 69.7314 13.3722C70.0007 13.3722 70.1985 13.287 70.3253 13.1161C70.4506 12.9443 70.5128 12.674 70.5128 12.3078V11.7555H71.987V11.756ZM77.9068 9.33982V11.8402C77.9068 12.7886 77.7178 13.4838 77.3408 13.9338C76.9623 14.3778 76.3768 14.6021 75.591 14.6021C74.7988 14.6021 74.2132 14.3773 73.8343 13.9338C73.4578 13.4838 73.2683 12.7886 73.2683 11.8402V9.33982C73.2683 8.39881 73.4578 7.70064 73.8343 7.25167C74.2132 6.80222 74.7988 6.57798 75.591 6.57798C76.3743 6.57798 76.9579 6.80565 77.3369 7.25608C77.7173 7.70798 77.9068 8.40224 77.9068 9.33982ZM76.368 8.86148C76.368 8.49281 76.3078 8.225 76.1805 8.05756C76.0561 7.8906 75.8598 7.80737 75.591 7.80737C75.3178 7.80737 75.1195 7.8906 74.9927 8.05756C74.8678 8.225 74.8052 8.4933 74.8052 8.86148V12.3083C74.8052 12.6745 74.8678 12.9448 74.9927 13.1166C75.1195 13.2875 75.3178 13.3727 75.591 13.3727C75.8598 13.3727 76.0561 13.2875 76.1805 13.1166C76.3078 12.9448 76.368 12.6745 76.368 12.3083V8.86148ZM79.4437 14.4586V6.69108H80.8816V7.64384C81.1764 7.29574 81.4584 7.03086 81.7252 6.8502C81.9925 6.66954 82.2442 6.57798 82.4767 6.57798C82.7847 6.57798 83.0364 6.66758 83.2386 6.84579C83.4408 7.02303 83.5876 7.29133 83.6758 7.64335C83.9641 7.30063 84.2462 7.03576 84.5238 6.85314C84.797 6.66954 85.0535 6.57749 85.2836 6.57749C85.7507 6.57749 86.0802 6.75375 86.278 7.10283C86.4738 7.45486 86.5727 8.07273 86.5727 8.96479V14.4586H85.0535V8.908C85.0535 8.56332 85.008 8.31851 84.9243 8.16821C84.84 8.02182 84.7005 7.94838 84.5003 7.94838C84.3906 7.94838 84.2721 7.99293 84.1473 8.08497C84.0244 8.17702 83.902 8.30481 83.781 8.46931V14.4586H82.2442V8.908C82.2442 8.56332 82.2011 8.31851 82.1169 8.16821C82.0307 8.02182 81.8931 7.94838 81.6993 7.94838C81.5832 7.94838 81.4647 7.99293 81.3374 8.08497C81.215 8.17702 81.0921 8.30481 80.9717 8.46931V14.4586H79.4437Z" fill="#EC008B"/>
</g>
<defs>
<clipPath id="clip0_5786_75195">
<rect width="86.1699" height="23.5009" fill="white" transform="translate(0.402344)"/>
</clipPath>
</defs>
</svg>
