<svg width="25" height="29" viewBox="0 0 25 29" fill="none" xmlns="http://www.w3.org/2000/svg">
<path d="M18.3138 9.35879C20.1949 10.7052 22.4984 11.4975 24.9865 11.4975V7.72238C23.5977 7.42607 22.3682 6.69913 21.4438 5.688C19.8614 4.699 18.7214 3.06741 18.3871 1.15773H14.899V20.3132C14.8911 22.5463 13.0817 24.3545 10.8505 24.3545C9.53559 24.3545 8.36748 23.7267 7.62769 22.7542C6.30663 22.0864 5.40071 20.7153 5.40071 19.132C5.40071 16.8927 7.21306 15.0771 9.44913 15.0771C9.87755 15.0771 10.2905 15.1439 10.6778 15.267V11.4507C5.87591 11.55 2.01401 15.48 2.01401 20.3133C2.01401 22.726 2.97571 24.9132 4.53657 26.5114C5.94468 27.4584 7.63978 28.0107 9.46352 28.0107C14.3514 28.0107 18.3139 24.0418 18.3139 19.146V9.35879H18.3138Z" fill="#E0E0E0"/>
<path d="M24.9865 7.72238L24.9865 6.70163C23.7341 6.70354 22.5063 6.35223 21.4438 5.6879C22.3844 6.71936 23.623 7.43058 24.9865 7.72238ZM18.3871 1.15773C18.3552 0.975222 18.3307 0.791507 18.3138 0.607091V-0.00976562H13.4976V19.1459C13.4899 21.3787 11.6806 23.1869 9.44913 23.1869C8.794 23.1869 8.17546 23.0311 7.62769 22.7543C8.36748 23.7267 9.53559 24.3544 10.8505 24.3544C13.0815 24.3544 14.8912 22.5464 14.899 20.3133L14.899 1.15773H18.3871ZM10.678 11.4507V10.364C10.2756 10.3089 9.86986 10.2813 9.46362 10.2815C4.57535 10.2814 0.612793 14.2503 0.612793 19.1459C0.612793 22.2151 2.17015 24.92 4.53667 26.5112C2.97581 24.9131 2.01411 22.7258 2.01411 20.3132C2.01411 15.48 5.87591 11.55 10.678 11.4507Z" fill="#E0E0E0"/>
</svg>
