<svg width="33" height="32" viewBox="0 0 33 32" fill="none" xmlns="http://www.w3.org/2000/svg">
<path d="M31.1072 9.70677L27.3943 13.4196C27.2946 17.0892 25.894 20.668 23.5166 23.2956C20.7322 26.373 16.8882 27.9997 12.4001 27.9997C8.03605 27.9997 5.78654 25.8004 5.69291 25.7068C5.56501 25.5789 5.47419 25.4186 5.43015 25.2432C5.38611 25.0677 5.39048 24.8836 5.44281 24.7104C5.49513 24.5373 5.59345 24.3816 5.72728 24.2598C5.86112 24.1381 6.02546 24.055 6.2028 24.0193C7.27006 23.8031 9.91923 22.9612 11.0466 21.4437C9.83788 20.7467 8.76459 19.8378 7.87809 18.7604C4.74162 14.9517 4.80809 10.1654 5.41618 6.82079C5.45051 6.63199 5.53844 6.45706 5.66947 6.31686C5.8005 6.17667 5.96909 6.07713 6.15514 6.03014C6.34119 5.98314 6.53684 5.99066 6.71873 6.05181C6.90062 6.11295 7.06107 6.22514 7.18095 6.37499C7.21532 6.41771 10.502 10.4443 15.4001 11.7598V11C15.4106 9.39881 16.0566 7.8673 17.196 6.74219C18.3353 5.61708 19.8749 4.99047 21.4761 5.00011C22.5162 5.01451 23.5348 5.29845 24.4324 5.82418C25.33 6.34991 26.0759 7.09946 26.5972 7.99962L30.4001 7.99968C30.5978 7.99968 30.7912 8.05833 30.9556 8.16821C31.1201 8.27808 31.2483 8.43426 31.3239 8.61698C31.3996 8.7997 31.4195 9.00077 31.3809 9.19475C31.3423 9.38873 31.2471 9.56692 31.1072 9.70677Z" fill="#E0E0E0"/>
</svg>
