<svg width="46" height="32" viewBox="0 0 46 32" fill="none" xmlns="http://www.w3.org/2000/svg">
<path d="M43.8873 0.779297H23.4066L0.797363 17.06V30.5919H43.8873L45.3501 29.699V26.8723L44.398 25.9302V23.2577L45.3501 22.5234V18.1746L44.4939 17.3211V14.5871L45.3501 13.8257V9.4769L44.4939 8.68904V6.29293L45.3501 5.12814V2.30138C45.3501 1.46071 44.6951 0.779297 43.8873 0.779297Z" fill="#E5646E"/>
<path d="M22.7046 5.12793H45.3501V9.47678H22.7046V5.12793Z" fill="#F2F2F6"/>
<path d="M22.6748 13.8257L23.4062 18.1745H45.3498V13.8257H22.6748Z" fill="#F2F2F6"/>
<path d="M1.46289 25.1325V17.3823L0 18.1743L0 22.5232L0.620019 23.0731L0.620019 25.93L0 26.872L0 29.6988C0 30.5395 0.655006 31.2209 1.46289 31.2209H43.8871C44.6949 31.2209 45.35 30.5394 45.35 29.6988H5.85165C3.42782 29.6988 1.46289 27.6544 1.46289 25.1325Z" fill="#DB4655"/>
<path d="M23.4062 0.779297L1.4627 0.779297L0.53125 2.30138L1.4627 18.1746H23.4062V0.779297Z" fill="#5055A0"/>
<path d="M1.46289 0.779297C0.655006 0.779297 0 1.46071 0 2.30138L0 18.1746H1.46289V0.779297Z" fill="#3F3F8F"/>
<path d="M2.93274 4.17247C2.5284 4.17247 2.19775 3.83167 2.19775 3.41143C2.19775 2.99119 2.52132 2.65039 2.92566 2.65039H2.93283C3.33717 2.65039 3.66428 2.99119 3.66428 3.41143C3.66428 3.83167 3.33699 4.17247 2.93274 4.17247Z" fill="white"/>
<path d="M2.93274 10.2609C2.5284 10.2609 2.19775 9.92005 2.19775 9.49981C2.19775 9.07957 2.52132 8.73877 2.92566 8.73877H2.93283C3.33717 8.73877 3.66428 9.07957 3.66428 9.49981C3.66428 9.92005 3.33699 10.2609 2.93274 10.2609Z" fill="white"/>
<path d="M2.93274 16.3492C2.5284 16.3492 2.19775 16.0084 2.19775 15.5882C2.19775 15.1679 2.52132 14.8271 2.92566 14.8271H2.93283C3.33717 14.8271 3.66428 15.1679 3.66428 15.5882C3.66428 16.0084 3.33699 16.3492 2.93274 16.3492Z" fill="white"/>
<path d="M2.93274 7.21691C2.5284 7.21691 2.19775 6.87611 2.19775 6.45587C2.19775 6.03563 2.52132 5.69482 2.92566 5.69482H2.93283C3.33717 5.69482 3.66428 6.03563 3.66428 6.45587C3.66419 6.87611 3.33699 7.21691 2.93274 7.21691Z" fill="#F2F2F6"/>
<path d="M2.93274 13.3048C2.5284 13.3048 2.19775 12.964 2.19775 12.5438C2.19775 12.1235 2.52132 11.7827 2.92566 11.7827H2.93283C3.33717 11.7827 3.66428 12.1235 3.66428 12.5438C3.66428 12.964 3.33699 13.3048 2.93274 13.3048Z" fill="#F2F2F6"/>
<path d="M20.4874 4.17247C20.0831 4.17247 19.7524 3.83167 19.7524 3.41143C19.7524 2.99119 20.076 2.65039 20.4803 2.65039H20.4875C20.8919 2.65039 21.219 2.99119 21.219 3.41143C21.219 3.83167 20.8918 4.17247 20.4874 4.17247Z" fill="white"/>
<path d="M20.4874 10.2609C20.0831 10.2609 19.7524 9.92005 19.7524 9.49981C19.7524 9.07957 20.076 8.73877 20.4803 8.73877H20.4875C20.8919 8.73877 21.219 9.07957 21.219 9.49981C21.219 9.92005 20.8918 10.2609 20.4874 10.2609Z" fill="white"/>
<path d="M20.4874 16.3492C20.0831 16.3492 19.7524 16.0084 19.7524 15.5882C19.7524 15.1679 20.076 14.8271 20.4803 14.8271H20.4875C20.8919 14.8271 21.219 15.1679 21.219 15.5882C21.219 16.0084 20.8918 16.3492 20.4874 16.3492Z" fill="white"/>
<path d="M20.4874 7.21691C20.0831 7.21691 19.7524 6.87611 19.7524 6.45587C19.7524 6.03563 20.076 5.69482 20.4803 5.69482H20.4875C20.8919 5.69482 21.219 6.03563 21.219 6.45587C21.219 6.87611 20.8918 7.21691 20.4874 7.21691Z" fill="#F2F2F6"/>
<path d="M20.4874 13.3048C20.0831 13.3048 19.7524 12.964 19.7524 12.5438C19.7524 12.1235 20.076 11.7827 20.4803 11.7827H20.4875C20.8919 11.7827 21.219 12.1235 21.219 12.5438C21.219 12.964 20.8918 13.3048 20.4874 13.3048Z" fill="#F2F2F6"/>
<path d="M7.3219 4.17247C6.91756 4.17247 6.58691 3.83167 6.58691 3.41143C6.58691 2.99119 6.91048 2.65039 7.31482 2.65039H7.32199C7.72633 2.65039 8.05344 2.99119 8.05344 3.41143C8.05344 3.83167 7.72624 4.17247 7.3219 4.17247Z" fill="#F2F2F6"/>
<path d="M7.3219 10.2609C6.91756 10.2609 6.58691 9.92005 6.58691 9.49981C6.58691 9.07957 6.91048 8.73877 7.31482 8.73877H7.32199C7.72633 8.73877 8.05344 9.07957 8.05344 9.49981C8.05344 9.92005 7.72624 10.2609 7.3219 10.2609Z" fill="#F2F2F6"/>
<path d="M7.3219 16.3492C6.91756 16.3492 6.58691 16.0084 6.58691 15.5882C6.58691 15.1679 6.91048 14.8271 7.31482 14.8271H7.32199C7.72633 14.8271 8.05344 15.1679 8.05344 15.5882C8.05344 16.0084 7.72624 16.3492 7.3219 16.3492Z" fill="#F2F2F6"/>
<path d="M7.3219 7.21691C6.91756 7.21691 6.58691 6.87611 6.58691 6.45587C6.58691 6.03563 6.91048 5.69482 7.31482 5.69482H7.32199C7.72633 5.69482 8.05344 6.03563 8.05344 6.45587C8.05335 6.87611 7.72624 7.21691 7.3219 7.21691Z" fill="white"/>
<path d="M7.3219 13.3048C6.91756 13.3048 6.58691 12.964 6.58691 12.5438C6.58691 12.1235 6.91048 11.7827 7.31482 11.7827H7.32199C7.72633 11.7827 8.05344 12.1235 8.05344 12.5438C8.05344 12.964 7.72624 13.3048 7.3219 13.3048Z" fill="white"/>
<path d="M5.12708 5.69445C4.72274 5.69445 4.39209 5.35364 4.39209 4.9334C4.39209 4.51316 4.71565 4.17236 5.11999 4.17236H5.12717C5.53151 4.17236 5.85861 4.51316 5.85861 4.9334C5.85852 5.35374 5.53142 5.69445 5.12708 5.69445Z" fill="white"/>
<path d="M5.12708 11.7828C4.72274 11.7828 4.39209 11.442 4.39209 11.0218C4.39209 10.6015 4.71565 10.2607 5.11999 10.2607H5.12717C5.53151 10.2607 5.85861 10.6015 5.85861 11.0218C5.85861 11.442 5.53142 11.7828 5.12708 11.7828Z" fill="white"/>
<path d="M5.12708 8.73888C4.72274 8.73888 4.39209 8.39808 4.39209 7.97784C4.39209 7.5576 4.71565 7.2168 5.11999 7.2168H5.12717C5.53151 7.2168 5.85861 7.5576 5.85861 7.97784C5.85861 8.39808 5.53142 8.73888 5.12708 8.73888Z" fill="#F2F2F6"/>
<path d="M5.12708 14.8268C4.72274 14.8268 4.39209 14.486 4.39209 14.0657C4.39209 13.6455 4.71565 13.3047 5.11999 13.3047H5.12717C5.53151 13.3047 5.85861 13.6455 5.85861 14.0657C5.85861 14.486 5.53142 14.8268 5.12708 14.8268Z" fill="#F2F2F6"/>
<path d="M11.7106 4.17247C11.3062 4.17247 10.9756 3.83167 10.9756 3.41143C10.9756 2.99119 11.2991 2.65039 11.7035 2.65039H11.7107C12.115 2.65039 12.4421 2.99119 12.4421 3.41143C12.4421 3.83167 12.1148 4.17247 11.7106 4.17247Z" fill="white"/>
<path d="M11.7106 10.2609C11.3062 10.2609 10.9756 9.92005 10.9756 9.49981C10.9756 9.07957 11.2991 8.73877 11.7035 8.73877H11.7107C12.115 8.73877 12.4421 9.07957 12.4421 9.49981C12.4421 9.92005 12.1148 10.2609 11.7106 10.2609Z" fill="white"/>
<path d="M11.7106 16.3492C11.3062 16.3492 10.9756 16.0084 10.9756 15.5882C10.9756 15.1679 11.2991 14.8271 11.7035 14.8271H11.7107C12.115 14.8271 12.4421 15.1679 12.4421 15.5882C12.4421 16.0084 12.1148 16.3492 11.7106 16.3492Z" fill="white"/>
<path d="M11.7106 7.21691C11.3062 7.21691 10.9756 6.87611 10.9756 6.45587C10.9756 6.03563 11.2991 5.69482 11.7035 5.69482H11.7107C12.115 5.69482 12.4421 6.03563 12.4421 6.45587C12.442 6.87611 12.1148 7.21691 11.7106 7.21691Z" fill="#F2F2F6"/>
<path d="M11.7106 13.3048C11.3062 13.3048 10.9756 12.964 10.9756 12.5438C10.9756 12.1235 11.2991 11.7827 11.7035 11.7827H11.7107C12.115 11.7827 12.4421 12.1235 12.4421 12.5438C12.4421 12.964 12.1148 13.3048 11.7106 13.3048Z" fill="#F2F2F6"/>
<path d="M9.51575 5.69445C9.11141 5.69445 8.78076 5.35364 8.78076 4.9334C8.78076 4.51316 9.10432 4.17236 9.50866 4.17236H9.51584C9.92018 4.17236 10.2473 4.51316 10.2473 4.9334C10.2473 5.35374 9.92009 5.69445 9.51575 5.69445Z" fill="#F2F2F6"/>
<path d="M9.51575 11.7828C9.11141 11.7828 8.78076 11.442 8.78076 11.0218C8.78076 10.6015 9.10432 10.2607 9.50866 10.2607H9.51584C9.92018 10.2607 10.2473 10.6015 10.2473 11.0218C10.2473 11.442 9.92009 11.7828 9.51575 11.7828Z" fill="#F2F2F6"/>
<path d="M9.51575 8.73888C9.11141 8.73888 8.78076 8.39808 8.78076 7.97784C8.78076 7.5576 9.10432 7.2168 9.50866 7.2168H9.51584C9.92018 7.2168 10.2473 7.5576 10.2473 7.97784C10.2473 8.39808 9.92009 8.73888 9.51575 8.73888Z" fill="white"/>
<path d="M9.51575 14.8268C9.11141 14.8268 8.78076 14.486 8.78076 14.0657C8.78076 13.6455 9.10432 13.3047 9.50866 13.3047H9.51584C9.92018 13.3047 10.2473 13.6455 10.2473 14.0657C10.2473 14.486 9.92009 14.8268 9.51575 14.8268Z" fill="white"/>
<path d="M16.0914 4.17247C15.6871 4.17247 15.3564 3.83167 15.3564 3.41143C15.3564 2.99119 15.68 2.65039 16.0843 2.65039H16.0915C16.4959 2.65039 16.823 2.99119 16.823 3.41143C16.823 3.83167 16.4958 4.17247 16.0914 4.17247Z" fill="#F2F2F6"/>
<path d="M16.0914 10.2609C15.6871 10.2609 15.3564 9.92005 15.3564 9.49981C15.3564 9.07957 15.68 8.73877 16.0843 8.73877H16.0915C16.4959 8.73877 16.823 9.07957 16.823 9.49981C16.823 9.92005 16.4958 10.2609 16.0914 10.2609Z" fill="#F2F2F6"/>
<path d="M16.0914 16.3492C15.6871 16.3492 15.3564 16.0084 15.3564 15.5882C15.3564 15.1679 15.68 14.8271 16.0843 14.8271H16.0915C16.4959 14.8271 16.823 15.1679 16.823 15.5882C16.823 16.0084 16.4958 16.3492 16.0914 16.3492Z" fill="#F2F2F6"/>
<path d="M16.0914 7.21691C15.6871 7.21691 15.3564 6.87611 15.3564 6.45587C15.3564 6.03563 15.68 5.69482 16.0843 5.69482H16.0915C16.4959 5.69482 16.823 6.03563 16.823 6.45587C16.8229 6.87611 16.4958 7.21691 16.0914 7.21691Z" fill="white"/>
<path d="M16.0914 13.3048C15.6871 13.3048 15.3564 12.964 15.3564 12.5438C15.3564 12.1235 15.68 11.7827 16.0843 11.7827H16.0915C16.4959 11.7827 16.823 12.1235 16.823 12.5438C16.823 12.964 16.4958 13.3048 16.0914 13.3048Z" fill="white"/>
<path d="M13.8976 5.69445C13.4932 5.69445 13.1626 5.35364 13.1626 4.9334C13.1626 4.51316 13.4862 4.17236 13.8905 4.17236H13.8977C14.302 4.17236 14.6291 4.51316 14.6291 4.9334C14.629 5.35374 14.3019 5.69445 13.8976 5.69445Z" fill="white"/>
<path d="M13.8976 11.7828C13.4932 11.7828 13.1626 11.442 13.1626 11.0218C13.1626 10.6015 13.4862 10.2607 13.8905 10.2607H13.8977C14.302 10.2607 14.6291 10.6015 14.6291 11.0218C14.6291 11.442 14.3019 11.7828 13.8976 11.7828Z" fill="white"/>
<path d="M13.8976 8.73888C13.4932 8.73888 13.1626 8.39808 13.1626 7.97784C13.1626 7.5576 13.4862 7.2168 13.8905 7.2168H13.8977C14.302 7.2168 14.6291 7.5576 14.6291 7.97784C14.6291 8.39808 14.3019 8.73888 13.8976 8.73888Z" fill="#F2F2F6"/>
<path d="M13.8976 14.8268C13.4932 14.8268 13.1626 14.486 13.1626 14.0657C13.1626 13.6455 13.4862 13.3047 13.8905 13.3047H13.8977C14.302 13.3047 14.6291 13.6455 14.6291 14.0657C14.6291 14.486 14.3019 14.8268 13.8976 14.8268Z" fill="#F2F2F6"/>
<path d="M18.2936 5.69445C17.8892 5.69445 17.5586 5.35364 17.5586 4.9334C17.5586 4.51316 17.8822 4.17236 18.2865 4.17236H18.2937C18.698 4.17236 19.0251 4.51316 19.0251 4.9334C19.025 5.35374 18.6979 5.69445 18.2936 5.69445Z" fill="#F2F2F6"/>
<path d="M18.2936 11.7828C17.8892 11.7828 17.5586 11.442 17.5586 11.0218C17.5586 10.6015 17.8822 10.2607 18.2865 10.2607H18.2937C18.698 10.2607 19.0251 10.6015 19.0251 11.0218C19.0251 11.442 18.6979 11.7828 18.2936 11.7828Z" fill="#F2F2F6"/>
<path d="M18.2936 8.73888C17.8892 8.73888 17.5586 8.39808 17.5586 7.97784C17.5586 7.5576 17.8822 7.2168 18.2865 7.2168H18.2937C18.698 7.2168 19.0251 7.5576 19.0251 7.97784C19.0251 8.39808 18.6979 8.73888 18.2936 8.73888Z" fill="white"/>
<path d="M18.2936 14.8268C17.8892 14.8268 17.5586 14.486 17.5586 14.0657C17.5586 13.6455 17.8822 13.3047 18.2865 13.3047H18.2937C18.698 13.3047 19.0251 13.6455 19.0251 14.0657C19.0251 14.486 18.6979 14.8268 18.2936 14.8268Z" fill="white"/>
<path d="M0.265625 25.6153L1.79441 26.8723H45.3499V22.5234H1.46279L0.265625 25.6153Z" fill="#F2F2F6"/>
<path d="M0 22.523L0 26.8719H1.79451C1.58185 26.3355 1.46298 25.7486 1.46298 25.1323V22.5229L0 22.523Z" fill="#E1E1E6"/>
</svg>
