<svg width="50" height="50" viewBox="0 0 50 50" fill="none" xmlns="http://www.w3.org/2000/svg">
<mask id="mask0_10824_95711" style="mask-type:luminance" maskUnits="userSpaceOnUse" x="0" y="0" width="50" height="50">
<path d="M49.9882 25.0611C49.9882 31.6753 47.3549 38.0187 42.6676 42.6957C37.9803 47.3726 31.623 50.0001 24.9941 50.0001C18.3653 50.0001 12.0079 47.3726 7.32061 42.6957C2.63331 38.0187 0 31.6753 0 25.0611C0 18.4469 2.63331 12.1035 7.32061 7.42654C12.0079 2.74957 18.3653 0.12207 24.9941 0.12207C31.623 0.12207 37.9803 2.74957 42.6676 7.42654C47.3549 12.1035 49.9882 18.4469 49.9882 25.0611Z" fill="white"/>
</mask>
<g mask="url(#mask0_10824_95711)">
<path d="M-12.4375 38.483H62.5209V34.6455H-12.4375V38.483Z" fill="white"/>
<path d="M-12.4375 34.6451H62.5209V30.8091H-12.4375V34.6451Z" fill="#CA4638"/>
<path d="M-12.4375 46.152H62.5209V42.3159H-12.4375V46.152Z" fill="white"/>
<path d="M-12.4375 49.9899H62.5209V46.1523H-12.4375V49.9899Z" fill="#CA4638"/>
<path d="M-12.4375 42.3161H62.5209V38.4829H-12.4375V42.3161Z" fill="#CA4638"/>
<path d="M-12.4375 30.6281H62.5209V26.7949H-12.4375V30.6281Z" fill="white"/>
<path d="M-12.4375 19.3034H62.5209V15.4702H-12.4375V19.3034Z" fill="#CA4638"/>
<path d="M-12.4375 7.79602H62.5209V3.9585H-12.4375V7.79602Z" fill="white"/>
<path d="M-12.4375 11.632H62.5209V7.7959H-12.4375V11.632Z" fill="#CA4638"/>
<path d="M-12.4375 26.9767H62.5209V23.1362H-12.4375V26.9767Z" fill="#CA4638"/>
<path d="M-12.4375 3.95818H62.5209V0.129395H-12.4375V3.95818Z" fill="#CA4638"/>
<path d="M-12.4375 15.4699H62.5209V11.6323H-12.4375V15.4699Z" fill="white"/>
<path d="M-12.4375 23.1359H62.5209V19.3027H-12.4375V23.1359Z" fill="white"/>
</g>
<mask id="mask1_10824_95711" style="mask-type:luminance" maskUnits="userSpaceOnUse" x="0" y="0" width="50" height="50">
<path d="M49.9999 24.9361C49.9999 31.5496 47.3669 37.8921 42.6802 42.5686C37.9934 47.245 31.6368 49.8722 25.0087 49.8722C18.3807 49.8722 12.0241 47.245 7.33733 42.5686C2.65057 37.8921 0.0175781 31.5496 0.0175781 24.9361C0.0175781 18.3226 2.65057 11.98 7.33733 7.30361C12.0241 2.62719 18.3807 0 25.0087 0C31.6368 0 37.9934 2.62719 42.6802 7.30361C47.3669 11.98 49.9999 18.3226 49.9999 24.9361Z" fill="white"/>
</mask>
<g mask="url(#mask1_10824_95711)">
<path d="M0.0410156 26.9931H25.0287V0.00341797H0.0410156V26.9931Z" fill="#356BA0"/>
</g>
<path d="M19.1565 3.61377L19.3434 4.19312H19.9531L19.4595 4.55095L19.6505 5.1303L19.1566 4.77211L18.659 5.1303L18.85 4.55095L18.3564 4.19312H18.9661L19.1565 3.61377Z" fill="white"/>
<path d="M19.1565 8.70166L19.3434 9.28065H19.9531L19.4595 9.63884L19.6505 10.2178L19.1566 9.86377L18.659 10.2178L18.85 9.63884L18.3564 9.28065H18.9661L19.1565 8.70166Z" fill="white"/>
<path d="M19.1565 13.7925L19.3434 14.3728H19.9531L19.4595 14.7297L19.6505 15.31L19.1566 14.9519L18.659 15.31L18.85 14.7297L18.3564 14.3728H18.9661L19.1565 13.7925Z" fill="white"/>
<path d="M19.1565 18.9961L19.3434 19.5792H19.9531L19.4595 19.9374L19.6505 20.5205L19.1566 20.1582L18.659 20.5205L18.85 19.9374L18.3564 19.5792H18.9661L19.1565 18.9961Z" fill="white"/>
<path d="M19.1565 23.9683L19.3434 24.5486H19.9531L19.4595 24.9095L19.6505 25.4886L19.1566 25.1276L18.659 25.4886L18.85 24.9095L18.3564 24.5486H18.9661L19.1565 23.9683Z" fill="white"/>
<path d="M14.5818 3.61377L14.7701 4.19312H15.3825L14.8872 4.55095L15.0755 5.1303L14.582 4.77211L14.0871 5.1303L14.2748 4.55095L13.7812 4.19312H14.3936L14.5818 3.61377Z" fill="white"/>
<path d="M14.5818 8.70166L14.7701 9.28065H15.3825L14.8872 9.63884L15.0755 10.2178L14.582 9.86377L14.0871 10.2178L14.2748 9.63884L13.7812 9.28065H14.3936L14.5818 8.70166Z" fill="white"/>
<path d="M14.5818 13.7925L14.7701 14.3728H15.3825L14.8872 14.7297L15.0755 15.31L14.582 14.9519L14.0871 15.31L14.2748 14.7297L13.7812 14.3728H14.3936L14.5818 13.7925Z" fill="white"/>
<path d="M14.5818 18.9961L14.7701 19.5792H15.3825L14.8872 19.9374L15.0755 20.5205L14.582 20.1582L14.0871 20.5205L14.2748 19.9374L13.7812 19.5792H14.3936L14.5818 18.9961Z" fill="white"/>
<path d="M14.5818 23.9683L14.7701 24.5486H15.3825L14.8872 24.9095L15.0755 25.4886L14.582 25.1276L14.0871 25.4886L14.2748 24.9095L13.7812 24.5486H14.3936L14.5818 23.9683Z" fill="white"/>
<path d="M10.0106 8.70166L10.1974 9.28065H10.8071L10.3136 9.63884L10.504 10.2178L10.0105 9.86377L9.51283 10.2178L9.70384 9.63884L9.20996 9.28065H9.81859L10.0104 8.70166" fill="white"/>
<path d="M10.0106 13.7925L10.1974 14.3728H10.8071L10.3136 14.7297L10.504 15.31L10.0105 14.9519L9.51283 15.31L9.70384 14.7297L9.20996 14.3728H9.81859L10.0104 13.7925" fill="white"/>
<path d="M10.0106 18.9961L10.1974 19.5792H10.8071L10.3136 19.9374L10.504 20.5205L10.0105 20.1582L9.51283 20.5205L9.70384 19.9374L9.20996 19.5792H9.81859L10.0104 18.9961" fill="white"/>
<path d="M10.0106 23.9683L10.1974 24.5486H10.8071L10.3136 24.9095L10.504 25.4886L10.0105 25.1276L9.51283 25.4886L9.70384 24.9095L9.20996 24.5486H9.81859L10.0104 23.9683" fill="white"/>
<path d="M5.4351 13.7925L5.62309 14.3728H6.23549L5.74193 14.7297L5.9302 15.31L5.43529 14.9519L4.94141 15.31L5.12966 14.7297L4.63477 14.3728H5.24443L5.43542 13.7925" fill="white"/>
<path d="M5.4351 18.9961L5.62309 19.5792H6.23549L5.74193 19.9374L5.9302 20.5205L5.43529 20.1582L4.94141 20.5205L5.12966 19.9374L4.63477 19.5792H5.24443L5.43542 18.9961" fill="white"/>
<path d="M5.4351 23.9683L5.62309 24.5486H6.23549L5.74193 24.9095L5.9302 25.4886L5.43529 25.1276L4.94141 25.4886L5.12966 24.9095L4.63477 24.5486H5.24443L5.43542 23.9683" fill="white"/>
<path d="M21.4878 6.15527L21.6758 6.73838H22.2882L21.7933 7.09245L21.9816 7.67556L21.488 7.31773L20.9928 7.67556L21.1824 7.09245L20.6875 6.73838H21.2985L21.4882 6.15527" fill="white"/>
<path d="M21.4878 11.4111L21.6758 11.9905H22.2882L21.7933 12.3483L21.9816 12.9277L21.488 12.5695L20.9928 12.9277L21.1824 12.3483L20.6875 11.9905H21.2985L21.4882 11.4111" fill="white"/>
<path d="M21.4399 16.5605L21.6296 17.1396H22.2406L21.7467 17.4977L21.935 18.0767L21.4401 17.7158L20.9466 18.0767L21.1345 17.4977L20.6396 17.1396H21.252L21.4403 16.5605" fill="white"/>
<path d="M21.3963 21.6479L21.5859 22.2273H22.1983L21.702 22.5851L21.8925 23.1645L21.3962 22.8077L20.904 23.1645L21.0923 22.5851L20.5957 22.2273H21.2081L21.3963 21.6479Z" fill="white"/>
<path d="M16.9131 6.15527L17.1027 6.73838H17.7151L17.2188 7.09245L17.4093 7.67556L16.913 7.31773L16.4181 7.67556L16.6091 7.09245L16.1152 6.73838H16.7249L16.9131 6.15527Z" fill="white"/>
<path d="M16.9131 11.4111L17.1027 11.9905H17.7151L17.2188 12.3483L17.4093 12.9277L16.913 12.5695L16.4181 12.9277L16.6091 12.3483L16.1152 11.9905H16.7249L16.9131 11.4111Z" fill="white"/>
<path d="M16.8687 16.5605L17.0569 17.1396H17.6693L17.1758 17.4977L17.3638 18.0767L16.8689 17.7158L16.3753 18.0767L16.5636 17.4977L16.0684 17.1396H16.6784L16.8688 16.5605" fill="white"/>
<path d="M16.8235 21.6479L17.0118 22.2273H17.6228L17.1293 22.5851L17.3175 23.1645L16.8236 22.8077L16.3287 23.1645L16.517 22.5851L16.0234 22.2273H16.6345L16.8238 21.6479" fill="white"/>
<path d="M12.339 5.9751L12.5283 6.55409H13.1393L12.6458 6.91228L12.8354 7.49127L12.3392 7.13344L11.8453 7.49127L12.0349 6.91228L11.54 6.55409H12.151L12.3393 5.9751" fill="white"/>
<path d="M12.339 11.2271L12.5283 11.806H13.1393L12.6458 12.167L12.8354 12.7432L12.3392 12.3892L11.8453 12.7432L12.0349 12.167L11.54 11.806H12.151L12.3393 11.2271" fill="white"/>
<path d="M12.2957 16.3765L12.4821 16.9555H13.0945L12.5996 17.3136L12.7892 17.8926L12.2957 17.5345L11.799 17.8926L11.9887 17.3136L11.4951 16.9555H12.1062L12.2957 16.3765Z" fill="white"/>
<path d="M12.2495 21.4668L12.4391 22.0472H13.0502L12.5563 22.4012L12.7445 22.9844L12.2497 22.6262L11.7561 22.9844L11.9441 22.4012L11.4492 22.0472H12.0602L12.2499 21.4668" fill="white"/>
<path d="M7.76857 11.1753L7.95629 11.7543H8.56766L8.07241 12.1166L8.26067 12.6956L7.76849 12.3347L7.27223 12.6956L7.46268 12.1166L6.96777 11.7543H7.57881L7.76844 11.1753" fill="white"/>
<path d="M7.72308 16.3247L7.90998 16.9051H8.52237L8.02746 17.266L8.21681 17.845L7.72329 17.4844L7.22838 17.845L7.41637 17.266L6.92285 16.9051H7.5325L7.72349 16.3247" fill="white"/>
<path d="M7.67655 21.4121L7.86618 21.9925H8.47719L7.9823 22.3534L8.17002 22.9324L7.67646 22.5715L7.18295 22.9324L7.37122 22.3534L6.87598 21.9925H7.48701L7.67655 21.4121Z" fill="white"/>
<path d="M3.1467 16.2368L3.33631 16.8162H3.94732L3.45243 17.174L3.64207 17.7533L3.14682 17.3952L2.65331 17.7533L2.84156 17.174L2.34668 16.8162H2.95906L3.14704 16.2368" fill="white"/>
<path d="M3.10306 21.3247L3.28969 21.9037H3.90209L3.40718 22.2619L3.59681 22.8409L3.10325 22.4831L2.60665 22.8409L2.79627 22.2619L2.30273 21.9037H2.91377L3.10341 21.3247" fill="white"/>
<path d="M23.7283 3.61377L23.9152 4.19312H24.5276L24.0341 4.55095L24.2218 5.1303L23.7282 4.77211L23.2333 5.1303L23.4216 4.55095L22.9277 4.19312H23.5388L23.7283 3.61377Z" fill="white"/>
<path d="M23.7283 8.70166L23.9152 9.28065H24.5276L24.0341 9.63884L24.2218 10.2178L23.7282 9.86377L23.2333 10.2178L23.4216 9.63884L22.9277 9.28065H23.5388L23.7283 8.70166Z" fill="white"/>
<path d="M23.7283 13.7925L23.9152 14.3728H24.5276L24.0341 14.7297L24.2218 15.31L23.7282 14.9519L23.2333 15.31L23.4216 14.7297L22.9277 14.3728H23.5388L23.7283 13.7925Z" fill="white"/>
<path d="M23.7283 18.9961L23.9152 19.5792H24.5276L24.0341 19.9374L24.2218 20.5205L23.7282 20.1582L23.2333 20.5205L23.4216 19.9374L22.9277 19.5792H23.5388L23.7283 18.9961Z" fill="white"/>
<path d="M23.7283 23.9683L23.9152 24.5486H24.5276L24.0341 24.9095L24.2218 25.4886L23.7282 25.1276L23.2333 25.4886L23.4216 24.9095L22.9277 24.5486H23.5388L23.7283 23.9683Z" fill="white"/>
<path d="M21.4878 1.30127L21.6758 1.88165H22.2882L21.7947 2.24254L21.9829 2.82156L21.488 2.46064L20.9941 2.82156L21.1824 2.24254L20.6875 1.88165H21.2972L21.4882 1.30127" fill="white"/>
<path d="M1.22806 23.9683L1.41606 24.5486H2.02846L1.53491 24.9095L1.72318 25.4886L1.22826 25.1276L0.73438 25.4886L0.922638 24.9095L0.427734 24.5486H1.0374L1.22839 23.9683" fill="white"/>
<path d="M1.64896 18.9961L1.83695 19.5792H2.44935L1.9558 19.9374L2.14407 20.5205L1.64915 20.1582L1.15527 20.5205L1.34353 19.9374L0.848633 19.5792H1.4583L1.64929 18.9961" fill="white"/>
<path d="M16.9131 1.74756L17.1027 2.33067H17.7151L17.2188 2.68474L17.4093 3.26785L16.913 2.91002L16.4181 3.26785L16.6091 2.68474L16.1152 2.33067H16.7249L16.9131 1.74756Z" fill="white"/>
</svg>
