<svg width="65" height="65" viewBox="0 0 65 65" fill="none" xmlns="http://www.w3.org/2000/svg">
<path d="M59.4985 17.7226C59.2576 16.7884 58.7981 15.9248 58.1577 15.2032C57.5173 14.4815 56.7146 13.9225 55.8156 13.5722C47.1143 10.2285 33.257 10.2564 32.5005 10.2604C31.7444 10.2543 17.8869 10.2284 9.1855 13.5722C8.28657 13.9225 7.48381 14.4815 6.84345 15.2031C6.2031 15.9247 5.74352 16.7882 5.50262 17.7224C4.84578 20.2438 4.06299 24.8544 4.06299 32.5006C4.06299 40.1467 4.84578 44.7573 5.50249 47.2787C5.74335 48.2129 6.20292 49.0765 6.84327 49.7981C7.48363 50.5198 8.28641 51.0788 9.18537 51.4291C17.5151 54.63 30.5698 54.7414 32.3332 54.7414C32.4908 54.7415 32.5102 54.7415 32.6677 54.7414C34.4326 54.7412 47.4863 54.6298 55.8155 51.4291C56.7144 51.0788 57.5172 50.5198 58.1575 49.7982C58.7979 49.0766 59.2575 48.2131 59.4984 47.2789C60.1552 44.7575 60.938 40.1468 60.938 32.5006C60.938 24.8546 60.1552 20.244 59.4985 17.7226ZM41.1888 33.3457L29.0013 41.4707C28.8484 41.5727 28.6706 41.6312 28.487 41.6401C28.3034 41.649 28.1208 41.6079 27.9587 41.5211C27.7966 41.4344 27.6611 41.3053 27.5667 41.1476C27.4722 40.9899 27.4223 40.8095 27.4224 40.6256V24.3756C27.4223 24.1918 27.4722 24.0114 27.5667 23.8537C27.6611 23.696 27.7966 23.5669 27.9587 23.4801C28.1208 23.3934 28.3034 23.3523 28.487 23.3612C28.6706 23.37 28.8484 23.4286 29.0013 23.5306L41.1888 31.6556C41.328 31.7483 41.442 31.874 41.5209 32.0214C41.5998 32.1688 41.6411 32.3334 41.6411 32.5006C41.6411 32.6678 41.5998 32.8324 41.5209 32.9799C41.442 33.1273 41.328 33.2529 41.1888 33.3457Z" fill="#FF0000"/>
</svg>
